<svg width="56" height="56" viewBox="0 0 56 56" fill="none" xmlns="http://www.w3.org/2000/svg">
<path d="M12.1525 30.2585C13.7798 30.2585 15.3132 30.9231 16.4443 32.0775C17.5789 33.2271 18.2255 34.7883 18.2255 36.4577C18.2255 38.1193 17.5792 39.6797 16.4451 40.8372C16.1739 41.114 15.881 41.3624 15.5673 41.5812C16.7658 42.0593 17.858 42.7904 18.7725 43.7238C20.5091 45.4962 21.5051 47.9051 21.5051 50.471C21.5051 50.9142 21.1686 51.287 20.7359 51.3293L20.6537 51.3333H3.65136C3.17985 51.3333 2.80002 50.9419 2.80002 50.471C2.80002 47.9024 3.79796 45.4937 5.53931 43.7246C6.37703 42.8633 7.37699 42.173 8.48175 41.6909L8.73853 41.5833L8.5496 41.4473C8.30143 41.2614 8.06838 41.0576 7.85243 40.8372C6.72104 39.6825 6.07203 38.1206 6.07203 36.4577C6.07203 34.7949 6.72104 33.233 7.85243 32.0783C8.98504 30.9223 10.5188 30.2585 12.1525 30.2585ZM43.2177 30.2585C44.8514 30.2585 46.3852 30.9223 47.517 32.0775C48.6516 33.2271 49.2982 34.7883 49.2982 36.4577C49.2982 38.1193 48.6519 39.6797 47.5178 40.8372C47.2502 41.1104 46.9552 41.3592 46.638 41.5804C47.8373 42.0584 48.9302 42.7899 49.8453 43.7238C51.5818 45.4962 52.5778 47.9051 52.5778 50.471C52.5778 50.9142 52.2413 51.287 51.8086 51.3293L51.7264 51.3333H34.7241C34.2526 51.3333 33.8728 50.9419 33.8728 50.471C33.8728 47.9051 34.8687 45.4962 36.6053 43.7238C37.4499 42.8619 38.451 42.1723 39.5546 41.6908L39.8111 41.5834L39.6225 41.448C39.3742 41.2628 39.1389 41.0589 38.9176 40.8372C37.7893 39.6857 37.1448 38.1244 37.1448 36.4577C37.1448 34.7911 37.7893 33.2298 38.9184 32.0775C40.0588 30.922 41.5917 30.2585 43.2177 30.2585ZM12.1536 42.6493C10.0896 42.6565 8.16648 43.4868 6.74997 44.9401C5.51756 46.198 4.7389 47.83 4.55233 49.6009H19.7592L19.7307 49.37C19.4981 47.6829 18.7368 46.1385 17.5627 44.9401C16.1332 43.4812 14.2089 42.6493 12.1536 42.6493ZM43.2253 42.6493L42.999 42.6532C41.0255 42.7166 39.1883 43.5387 37.8152 44.9401C36.5876 46.193 35.8113 47.824 35.6186 49.6009H50.8255C50.6392 47.8323 49.8623 46.1997 48.6351 44.9398L48.4801 44.7859C47.068 43.4227 45.2081 42.6493 43.2253 42.6493ZM27.6889 25.6003C28.1623 25.6003 28.5403 25.986 28.5403 26.4626V29.9389C29.5112 30.113 30.4037 30.5764 31.1104 31.2611H31.1211L31.2116 31.3543C32.1337 32.3039 32.6662 33.5855 32.6662 34.9384C32.6662 35.8933 32.4074 36.8042 31.926 37.5913L34.698 40.4423C35.0367 40.776 35.033 41.3244 34.7018 41.6624C34.3698 42.0014 33.8241 42.0013 33.4909 41.6613L30.8064 38.8929C29.9272 39.6108 28.8392 40.0117 27.6889 40.0117C26.5808 40.0117 25.5255 39.6366 24.6721 38.9653L22.0294 41.6624C21.6973 42.0014 21.1516 42.0014 20.8196 41.6624C20.491 41.3271 20.491 40.7814 20.8196 40.4461L23.5159 37.6942C22.995 36.8781 22.7117 35.9282 22.7117 34.9384C22.7117 33.5739 23.2397 32.2999 24.1671 31.3533C24.8908 30.6148 25.8187 30.1205 26.8376 29.9388V26.4626C26.8376 25.986 27.2155 25.6003 27.6889 25.6003ZM12.1525 31.9909C10.9767 31.9909 9.87536 32.4648 9.06229 33.2946C8.24452 34.1292 7.77472 35.2575 7.77472 36.4577C7.77472 37.658 8.24452 38.7863 9.06229 39.6209C9.87536 40.4507 10.9767 40.9246 12.1525 40.9246C13.3291 40.9246 14.43 40.4501 15.2343 39.6219L15.3248 39.5287H15.3306L15.4542 39.3893C16.1372 38.5861 16.5228 37.5539 16.5228 36.4577C16.5228 35.251 16.0556 34.1245 15.2362 33.2956L15.1048 33.1658C14.3139 32.4168 13.2672 31.9909 12.1525 31.9909ZM43.2177 31.9909C42.0419 31.9909 40.9405 32.4648 40.1275 33.2946C39.3132 34.1257 38.8475 35.2531 38.8475 36.4577C38.8475 37.6623 39.3132 38.7898 40.1275 39.6209C40.9405 40.4507 42.0419 40.9246 43.2177 40.9246L43.4104 40.9207C44.5169 40.8737 45.5451 40.4065 46.307 39.6219L46.3975 39.5287H46.4033L46.5269 39.3893C47.2099 38.5861 47.5955 37.5539 47.5955 36.4577C47.5955 35.251 47.1283 34.1245 46.3089 33.2956L46.177 33.1662C45.3773 32.4143 44.3362 31.9909 43.2177 31.9909ZM27.6889 31.5899C26.8094 31.5899 25.9894 31.9446 25.377 32.5696C24.7633 33.196 24.4143 34.0363 24.4143 34.9384C24.4143 35.7128 24.6763 36.4504 25.1439 37.0424L25.2472 37.167L25.2584 37.1786L25.3208 37.2474L25.377 37.3072C25.9859 37.9287 26.805 38.2793 27.6889 38.2793C28.5729 38.2793 29.3919 37.9287 29.9996 37.3085C30.6083 36.6799 30.9559 35.8385 30.9559 34.9384C30.9559 34.0383 30.6083 33.197 30.0008 32.5696C29.3884 31.9446 28.5684 31.5899 27.6889 31.5899ZM27.6813 4.04443C29.3151 4.04443 30.8488 4.70828 31.9815 5.86422C33.1128 7.01892 33.7619 8.58087 33.7619 10.2437C33.7619 11.8566 33.1457 13.3797 32.0692 14.5241V14.5336L31.9815 14.6232C31.7124 14.8978 31.4168 15.1466 31.0984 15.3671L31.3534 15.4731C32.4507 15.9489 33.4491 16.64 34.3013 17.5098C36.0451 19.2894 37.0414 21.6901 37.0414 24.2492C37.0414 24.7258 36.6635 25.1116 36.1901 25.1116H19.1877C18.7143 25.1116 18.3364 24.7258 18.3364 24.2492C18.3364 21.6928 19.3308 19.292 21.0689 17.5098C21.9785 16.5815 23.0696 15.8531 24.2747 15.3693C23.9563 15.1495 23.6579 14.9003 23.3812 14.6232C22.253 13.4716 21.6084 11.9103 21.6084 10.2437C21.6084 8.57705 22.253 7.01575 23.382 5.86343C24.5224 4.70792 26.0554 4.04443 27.6813 4.04443ZM27.6889 16.4352L27.4626 16.4391C25.4891 16.5026 23.6519 17.3247 22.2788 18.7261C21.1037 19.9254 20.3428 21.4705 20.1105 23.1629L20.0821 23.3946H35.2956L35.2672 23.1634C35.0449 21.5513 34.3381 20.0694 33.2496 18.8922L33.0915 18.7261L32.9368 18.5717C31.5846 17.2599 29.8099 16.4934 27.9088 16.4384L27.6889 16.4352ZM27.6813 5.76914C26.5124 5.76914 25.4171 6.245 24.5911 7.08054C23.7768 7.91161 23.3111 9.03909 23.3111 10.2437C23.3111 11.4483 23.7768 12.5758 24.5901 13.4059C25.3702 14.1949 26.3936 14.6599 27.4968 14.7066L27.6813 14.7105L27.8736 14.7066C28.9773 14.6598 29.9999 14.1944 30.7716 13.4068C31.5894 12.5722 32.0592 11.4439 32.0592 10.2437C32.0592 9.04347 31.5894 7.91517 30.7716 7.08054C29.955 6.24717 28.8529 5.76914 27.6813 5.76914Z" fill="#529DD6"/>
</svg>
