<svg width="56" height="56" viewBox="0 0 56 56" fill="none" xmlns="http://www.w3.org/2000/svg">
<path d="M28.168 26.936C23.688 26.936 19.992 23.296 19.992 18.76C19.992 14.224 23.632 10.584 28.168 10.584C32.704 10.584 36.344 14.224 36.344 18.76C36.344 23.296 32.704 26.936 28.168 26.936ZM28.168 12.824C24.92 12.824 22.232 15.512 22.232 18.76C22.232 22.008 24.92 24.696 28.168 24.696C31.416 24.696 34.104 22.008 34.104 18.76C34.104 15.512 31.472 12.824 28.168 12.824Z" fill="#529DD6"/>
<path d="M28.168 45.64C21.784 45.64 15.848 44.8 15.624 44.744L14.672 44.576V35.336C14.672 31.584 18.088 28.28 23.352 26.992L23.8 26.88L24.192 27.104C26.656 28.448 29.792 28.448 32.2 27.104L32.592 26.88L33.04 26.992C38.304 28.336 41.72 31.584 41.72 35.336V44.576L40.768 44.744C40.488 44.744 34.552 45.64 28.168 45.64ZM16.912 42.616C18.816 42.84 23.408 43.344 28.168 43.344C32.928 43.344 37.52 42.84 39.424 42.616V35.336C39.424 32.76 36.792 30.352 32.816 29.232C29.904 30.688 26.376 30.688 23.464 29.232C19.488 30.352 16.856 32.76 16.856 35.336L16.912 42.616Z" fill="#529DD6"/>
<path d="M41.328 11.088C39.424 11.088 37.688 11.872 36.456 13.104C36.848 13.664 37.184 14.224 37.408 14.84C38.36 13.72 39.76 12.992 41.328 12.992C44.128 12.992 46.424 15.288 46.424 18.088C46.424 20.888 44.128 23.184 41.328 23.184C39.928 23.184 38.696 22.624 37.744 21.728C37.52 22.4 37.296 23.016 36.96 23.576C38.136 24.528 39.648 25.088 41.328 25.088C45.192 25.088 48.328 21.952 48.328 18.088C48.328 14.224 45.192 11.088 41.328 11.088Z" fill="#529DD6"/>
<path d="M45.472 25.0881L45.08 24.9761L44.744 25.2001C42.672 26.3761 39.984 26.3761 37.856 25.2001L37.52 25.0321L37.128 25.1441C36.512 25.3121 35.896 25.4801 35.336 25.7041C35.392 25.7041 35.336 25.7601 35.28 25.7601C36.68 26.2641 37.968 26.9361 39.088 27.6641C41.16 28.1681 43.4 27.9441 45.304 26.9921C48.72 28.0001 50.96 30.0721 50.96 32.2561V38.5281C49.616 38.6961 46.76 39.0321 43.512 39.1441V41.0481C48.104 40.8801 51.912 40.3201 52.08 40.3201L52.92 40.2081V32.2561C52.864 29.0641 49.952 26.2641 45.472 25.0881Z" fill="#529DD6"/>
<path d="M15.064 11.088C16.968 11.088 18.704 11.872 19.936 13.104C19.544 13.664 19.208 14.224 18.984 14.84C18.032 13.72 16.632 12.992 15.064 12.992C12.264 12.992 9.968 15.288 9.968 18.088C9.968 20.888 12.264 23.184 15.064 23.184C16.464 23.184 17.696 22.624 18.648 21.728C18.872 22.4 19.096 23.016 19.432 23.576C18.256 24.528 16.744 25.088 15.064 25.088C11.2 25.088 8.064 21.952 8.064 18.088C8.064 14.224 11.2 11.088 15.064 11.088Z" fill="#529DD6"/>
<path d="M10.92 25.0881L11.312 24.9761L11.648 25.1441C13.72 26.3201 16.408 26.3201 18.536 25.1441L18.872 24.9761L19.264 25.0881C19.88 25.2561 20.496 25.4241 21.056 25.6481C21.112 25.7041 21.112 25.7041 21.168 25.7601C19.768 26.2641 18.48 26.9361 17.36 27.6641C15.288 28.1681 13.048 27.9441 11.144 26.9921C7.61598 28.0001 5.37598 30.0721 5.37598 32.2561V38.5281C6.71998 38.6961 9.57598 39.0321 12.824 39.1441V41.0481C8.28798 40.8801 4.47998 40.3201 4.31198 40.3201L3.47198 40.2081V32.2561C3.47198 29.0641 6.38398 26.2641 10.92 25.0881Z" fill="#529DD6"/>
</svg>
