<svg width="58" height="72" viewBox="0 0 58 72" fill="none" xmlns="http://www.w3.org/2000/svg">
<path fill-rule="evenodd" clip-rule="evenodd" d="M48.7094 11.3208C48.3158 10.8338 47.9058 10.3713 47.3902 9.87566C36.8254 -0.285426 20.0274 0.0456355 9.87106 10.6154C-0.285644 21.1856 0.0456363 37.9914 10.6105 48.1525C11.8752 49.3689 13.2301 50.4334 14.6515 51.3493C14.4713 52.2242 14.3303 53.1043 14.2262 53.9866C12.34 52.8677 10.5512 51.5165 8.9022 49.9303C-2.64417 38.8252 -3.00604 20.4581 8.09377 8.90636C18.8522 -2.29009 36.43 -2.97462 48.014 7.10547C48.3766 7.42123 49.2328 8.12031 50.3304 9.38373C49.8372 9.94545 49.2794 10.5934 48.7094 11.3208Z" fill="white"/>
<path d="M43.119 59.53C42.2867 59.9182 41.4391 60.2721 40.5788 60.5901C36.878 61.9587 32.9388 62.6757 28.9358 62.6757C24.9063 62.6757 20.9358 61.946 17.2033 60.5538C16.381 60.247 15.5707 59.9081 14.7742 59.5375V56.6345C15.8584 57.1921 16.9734 57.6848 18.1132 58.1099C21.5398 59.3878 25.2022 60.0578 28.9358 60.0578C32.634 60.0578 36.2691 59.3972 39.6793 58.136C40.8545 57.7012 42.0032 57.1954 43.119 56.6207V59.53Z" fill="white"/>
<path d="M43.1186 64.6673C41.7446 65.2074 40.3412 65.6687 38.9146 66.0487C35.67 66.9138 32.3195 67.3572 28.9463 67.3572C25.5734 67.3572 22.2229 66.9138 18.9783 66.0487C17.5517 65.6687 16.1479 65.2074 14.7739 64.6673V61.8434C16.3586 62.5204 17.9856 63.0814 19.6427 63.5233C22.6586 64.3273 25.7856 64.7397 28.9463 64.7397C32.1072 64.7397 35.2343 64.3273 38.2501 63.5233C39.9073 63.0814 41.5342 62.5204 43.1186 61.8434V64.6673Z" fill="white"/>
<path d="M37.9341 71.0688C34.9858 71.6854 31.9744 72 28.9462 72C25.9181 72 22.9067 71.6854 19.9583 71.0688V68.3964C22.8929 69.0488 25.9061 69.3821 28.9462 69.3821C31.9864 69.3821 35 69.0488 37.9341 68.3964V71.0688Z" fill="white"/>
<path fill-rule="evenodd" clip-rule="evenodd" d="M21.6927 7.65299C21.2089 7.56453 20.7284 7.53729 20.2934 7.52908C17.373 7.4675 14.8906 9.64648 14.5392 12.5014C12.7895 12.554 11.1585 13.2949 9.92811 14.605C7.88558 16.7795 7.47858 20.0401 8.69626 22.6542C6.40154 24.0315 4.92494 26.6274 4.92494 29.4569C4.92494 32.2629 6.37841 34.8383 8.64142 36.2245C8.0822 37.4222 7.91469 38.7442 8.17509 40.0898C8.76379 43.1328 11.4987 45.3554 14.5597 45.4898C14.6899 46.3662 15.0052 47.1698 15.4618 47.8591C15.7256 46.9216 16.0386 45.9926 16.4012 45.0755C16.8041 44.0562 17.2697 43.0507 17.7983 42.0638C17.1839 42.9126 16.2266 43.2306 15.4443 43.3392C13.1361 43.6602 10.8145 41.9959 10.3717 39.7061C10.1076 38.3412 10.5955 36.8407 11.5345 35.8404C11.9453 35.4034 11.905 34.7323 11.4446 34.3419C10.9846 33.9519 10.2781 33.9895 9.86731 34.427C9.86208 34.4329 9.85724 34.4389 9.85164 34.4449C8.21314 33.4472 7.15922 31.5445 7.15922 29.4569C7.15922 27.3519 8.22955 25.4341 9.89156 24.4436C9.90424 24.4574 9.91507 24.4727 9.92775 24.4869L10.8 25.4155C11.0208 25.6502 11.3267 25.7701 11.6338 25.7701C11.8987 25.7701 12.1643 25.6812 12.3773 25.5006C12.8377 25.1102 12.8779 24.4391 12.4672 24.0016L11.595 23.073C11.4368 22.9051 11.2976 22.7248 11.1671 22.54C11.1525 22.5177 11.138 22.496 11.1219 22.4751C9.79008 20.5257 9.94416 17.7756 11.595 16.0184C12.4426 15.1159 13.5588 14.6191 14.7384 14.6191C15.9181 14.6191 17.0346 15.1159 17.8822 16.0184C18.293 16.4559 18.9992 16.4943 19.4596 16.1035C19.9199 15.7131 19.9598 15.042 19.5491 14.6053C18.7563 13.7611 17.7972 13.1527 16.747 12.8123C16.9347 11.0245 18.4284 9.65095 20.1893 9.65095C20.2094 9.65095 20.2303 9.65133 20.2508 9.6517C20.54 9.65693 20.8787 9.67149 21.2033 9.72449C21.6954 9.80436 21.7759 9.93462 22.1587 9.87527C22.6597 9.79727 23.0376 9.35012 23.0376 8.8246C23.0376 8.39911 22.7884 8.03184 22.4284 7.86052C22.1979 7.75116 21.9528 7.70039 21.6927 7.65299ZM24.5862 26.4889C24.0028 26.3784 23.4372 26.755 23.3245 27.3306C23.2872 27.5205 23.2324 27.7064 23.1611 27.8833C23.0906 28.058 23.0041 28.2256 22.9037 28.382C22.8045 28.5354 22.6911 28.6795 22.5661 28.8108C22.4418 28.9411 22.3057 29.0587 22.1628 29.1602C22.018 29.2625 21.8643 29.3502 21.7062 29.4203C21.5454 29.4916 21.3782 29.5461 21.2078 29.5823C20.8619 29.6562 20.49 29.657 20.1412 29.5823C19.9722 29.5461 19.805 29.4916 19.6442 29.4203C19.4857 29.3502 19.3324 29.2621 19.1887 29.1609C19.0447 29.059 18.9089 28.9411 18.7843 28.8108C18.6597 28.6798 18.5463 28.5358 18.4471 28.382C18.3463 28.2252 18.2598 28.058 18.19 27.8841C18.118 27.7061 18.0628 27.5198 18.0262 27.331C17.9136 26.7554 17.348 26.3773 16.7653 26.4885C16.1807 26.599 15.7979 27.1551 15.9102 27.7311C15.9725 28.0509 16.0654 28.3659 16.1874 28.6679C16.2452 28.8112 16.3102 28.9516 16.381 29.0893C16.0501 29.4073 15.6342 29.62 15.1678 29.698C14.5026 29.8085 13.814 29.6406 13.2271 29.2233C12.7444 28.881 12.0714 28.9881 11.7233 29.4633C11.3752 29.9384 11.4842 30.602 11.9669 30.945C12.8071 31.5422 13.777 31.8546 14.7604 31.8546C15.0164 31.8546 15.273 31.8337 15.5282 31.7908C16.371 31.6501 17.1268 31.2832 17.7438 30.7379C17.8069 30.7868 17.8673 30.8394 17.9319 30.8853C18.193 31.0697 18.4717 31.2283 18.7604 31.3567C19.0582 31.4888 19.3689 31.59 19.683 31.6568C20.0069 31.7266 20.3411 31.7621 20.6758 31.7621C21.0108 31.7621 21.3447 31.727 21.6674 31.6572C21.9822 31.59 22.293 31.4885 22.5911 31.3567C22.8798 31.2283 23.1589 31.0701 23.4211 30.8846C23.6774 30.7024 23.9181 30.4941 24.1363 30.265C24.3546 30.0369 24.5519 29.7861 24.7231 29.5196C24.8955 29.252 25.044 28.9661 25.1637 28.6683C25.285 28.3671 25.3782 28.0524 25.4409 27.7322C25.5528 27.1563 25.1705 26.5998 24.5862 26.4889ZM14.5112 37.13C14.5053 37.1397 14.4993 37.149 14.4933 37.1583L13.5073 38.7782C13.1984 39.2858 13.3808 39.9349 13.9151 40.2283C14.4486 40.5216 15.132 40.3484 15.4413 39.8416L16.418 38.2366C17.0585 37.2659 18.1363 36.7344 19.2398 36.7993C20.0069 36.8441 20.5873 37.118 21.0992 37.4678C21.4584 37.0274 22.1102 36.2413 22.4724 35.8001C21.5719 35.1466 20.5717 34.8394 20.3202 34.7816C18.4232 34.3467 16.0449 34.7816 14.5112 37.13ZM41.6786 14.474C43.5868 14.474 45.1336 16.0218 45.1336 17.9305C45.1336 19.84 43.5868 21.3875 41.6786 21.3875C40.161 21.3875 38.8724 20.4088 38.4079 19.048H29.9789V24.1416V24.2861H35.0481C35.5122 22.9252 36.8011 21.9466 38.3188 21.9466C40.227 21.9466 41.7737 23.494 41.7737 25.4032C41.7737 27.3123 40.227 28.8601 38.3188 28.8601C36.8011 28.8601 35.5122 27.8815 35.0481 26.5206H29.9789V28.6011V29.7421C29.2182 30.1668 28.4728 30.6244 27.7453 31.1137V27.2544V24.1424C27.7453 22.5393 26.4863 21.2352 24.938 21.2352C23.3902 21.2352 22.1311 22.5393 22.1311 24.1424C22.1311 24.7287 21.6308 25.2038 21.0141 25.2038C20.3971 25.2038 19.8972 24.7287 19.8972 24.1424C19.8972 23.7538 19.9457 23.3772 20.0296 23.0137C19.8453 23.0297 19.6603 23.0383 19.4741 23.0383C19.1805 23.0383 18.8851 23.0189 18.5888 22.9786C16.8563 22.7453 15.3208 21.8484 14.2661 20.4533C13.9065 19.977 14.0206 19.3141 14.5217 18.9719C15.0227 18.6296 15.7211 18.7382 16.0807 19.2149C16.7765 20.1356 17.7789 20.7257 18.903 20.8773C21.4323 21.2165 22.2967 19.1118 24.9384 19.1118C25.9766 19.1118 26.9421 19.4272 27.7453 19.9666V11.9822C26.4292 11.494 25.4917 10.2269 25.4917 8.74024C25.4917 6.83112 27.0384 5.28368 28.9466 5.28368C30.8548 5.28368 32.4016 6.83112 32.4016 8.74024C32.4016 10.2899 31.3827 11.6011 29.9789 12.0401V16.8134H32.3307L34.7008 12.707C34.1841 12.1028 33.8722 11.3186 33.8722 10.4613C33.8722 8.55214 35.4189 7.00467 37.3272 7.00467C39.2354 7.00467 40.7821 8.55214 40.7821 10.4613C40.7821 12.3704 39.2354 13.9182 37.3272 13.9182C37.0854 13.9182 36.85 13.8932 36.6224 13.8462L34.9097 16.8134H38.4079C38.8724 15.4526 40.161 14.474 41.6786 14.474ZM38.3188 23.8255C39.1895 23.8255 39.8957 24.532 39.8957 25.4032C39.8957 26.2747 39.1895 26.9812 38.3188 26.9812C37.4477 26.9812 36.7414 26.2747 36.7414 25.4032C36.7414 24.532 37.4477 23.8255 38.3188 23.8255ZM28.9466 7.16256C29.8177 7.16256 30.5239 7.86873 30.5239 8.74024C30.5239 9.61176 29.8177 10.3183 28.9466 10.3183C28.0755 10.3183 27.3693 9.61176 27.3693 8.74024C27.3693 7.86873 28.0755 7.16256 28.9466 7.16256ZM37.3272 8.88356C38.1983 8.88356 38.9045 9.59012 38.9045 10.4613C38.9045 11.3328 38.1983 12.0393 37.3272 12.0393C36.4561 12.0393 35.7498 11.3328 35.7498 10.4613C35.7498 9.59012 36.4561 8.88356 37.3272 8.88356ZM41.6786 16.3528C42.5497 16.3528 43.2555 17.0594 43.2555 17.9309C43.2555 18.8021 42.5497 19.5086 41.6786 19.5086C40.8075 19.5086 40.1013 18.8021 40.1013 17.9309C40.1013 17.0594 40.8075 16.3528 41.6786 16.3528Z" fill="white"/>
<path fill-rule="evenodd" clip-rule="evenodd" d="M35.0284 29.75C30.4079 31.5643 26.1916 34.5891 22.8929 38.7671C19.0078 43.6879 16.972 49.4772 16.6855 55.2972C20.6172 52.1358 23.4365 49.4007 27.9905 47.2314C34.4016 44.1772 38.5807 38.461 35.0284 29.75ZM44.7628 25.2913C43.0616 28.1641 42.0871 31.7644 43.4201 36.0783C44.0536 38.1292 44.5591 40.0484 44.6277 41.837C45.0448 41.4839 45.4499 41.1036 45.8413 40.6964C47.4212 39.0523 47.9428 37.3955 47.8491 35.6659C47.7477 33.7963 46.9523 31.7491 45.9629 29.5302C45.3093 28.0641 44.9288 26.6488 44.7628 25.2913ZM41.4999 31.6506C39.9249 34.0561 38.9586 37.0711 39.5342 40.827C39.7316 42.1147 39.8894 43.3479 39.939 44.5158C41.1276 44.1123 42.2759 43.5401 43.3597 42.8018L43.3246 41.8829C43.2936 41.0741 43.1612 40.2239 42.9631 39.337C42.7616 38.4327 42.4841 37.4682 42.1729 36.4616C41.6473 34.7604 41.4499 33.1558 41.4999 31.6506ZM52.7322 15.4904C56.064 23.1101 57.7089 30.3039 53.8301 38.9955C52.2095 38.0169 52.5483 36.0985 53.1172 34.9619C56.5408 28.1216 54.2353 21.6343 52.7322 15.4904ZM32.2505 33.1118C27.4298 35.8084 22.556 41.5007 20.7224 48.5732C23.4589 47.8148 23.7025 46.5925 24.1535 44.7431C25.3775 39.7237 28.3013 36.3261 32.2505 33.1118ZM18.2624 55.9813C20.8314 57.0055 23.5152 57.646 26.227 57.9057C27.7905 58.0554 29.2563 58.0901 30.8071 57.9931C36.9172 57.612 41.2477 56.0754 45.5272 50.3487C47.1963 48.1149 48.277 46.2763 48.7814 43.4699C49.0545 41.9501 49.0754 40.3112 48.7527 38.8328C44.5274 47.748 31.9136 46.1953 24.0513 50.956C20.8429 52.8987 19.3846 54.8332 18.2624 55.9813ZM49.907 49.1219C60.0114 38.6062 60.6162 22.4438 51.9338 11.2522C49.0851 14.4808 43.9476 20.7396 47.1537 28.9983C50.8243 38.4547 50.5781 43.374 48.527 47.3315C47.253 49.7896 45.6369 51.9216 43.122 54.4495C45.8424 52.7468 48.0096 51.0963 49.907 49.1219Z" fill="white"/>
</svg>
