<svg width="56" height="56" viewBox="0 0 56 56" fill="none" xmlns="http://www.w3.org/2000/svg">
<path d="M40.8333 8.45837H15.1667C13.0015 8.461 10.9258 9.32226 9.39486 10.8532C7.86388 12.3842 7.00262 14.4599 7 16.625V32.9584C7.00262 35.1235 7.86388 37.1992 9.39486 38.7302C10.9258 40.2612 13.0015 41.1224 15.1667 41.125H21.6198L27.1045 47.7058C27.2139 47.837 27.3508 47.9425 27.5056 48.0149C27.6603 48.0874 27.829 48.1249 27.9999 48.1249C28.1707 48.1249 28.3395 48.0874 28.4942 48.0149C28.6489 47.9425 28.7859 47.837 28.8953 47.7058L34.3802 41.125H40.8333C42.9985 41.1224 45.0742 40.2612 46.6052 38.7302C48.1361 37.1992 48.9974 35.1235 49 32.9584V16.625C48.9974 14.4599 48.1361 12.3842 46.6051 10.8532C45.0742 9.32226 42.9985 8.461 40.8333 8.45837V8.45837ZM46.6667 32.9584C46.665 34.505 46.0499 35.9878 44.9563 37.0814C43.8627 38.175 42.3799 38.7901 40.8333 38.7917H33.8333C33.6624 38.7917 33.4936 38.8292 33.3389 38.9017C33.1841 38.9741 33.0472 39.0797 32.9378 39.211L28 45.1355L23.0622 39.211C22.9528 39.0797 22.8159 38.9741 22.6611 38.9016C22.5064 38.8292 22.3376 38.7917 22.1667 38.7917H15.1667C13.6201 38.7901 12.1373 38.175 11.0437 37.0814C9.95006 35.9878 9.33495 34.505 9.33333 32.9584V16.625C9.33495 15.0784 9.95006 13.5957 11.0437 12.502C12.1373 11.4084 13.6201 10.7933 15.1667 10.7917H40.8333C42.3799 10.7933 43.8627 11.4084 44.9563 12.502C46.0499 13.5957 46.665 15.0784 46.6667 16.625V32.9584Z" fill="#529DD6"/>
<path d="M28 15.4584C26.7627 15.4598 25.5766 15.9519 24.7017 16.8268C23.8268 17.7016 23.3347 18.8878 23.3333 20.125C23.3333 20.4345 23.4562 20.7312 23.675 20.95C23.8938 21.1688 24.1906 21.2917 24.5 21.2917C24.8094 21.2917 25.1062 21.1688 25.325 20.95C25.5437 20.7312 25.6667 20.4345 25.6667 20.125C25.6667 19.5062 25.9125 18.9127 26.3501 18.4751C26.7877 18.0375 27.3812 17.7917 28 17.7917C28.6188 17.7917 29.2123 18.0375 29.6499 18.4751C30.0875 18.9127 30.3333 19.5062 30.3333 20.125C30.3333 21.3988 29.7705 21.8181 28.9183 22.4525C28.0387 23.1089 26.8333 24.0067 26.8333 25.9584C26.8333 26.2678 26.9562 26.5645 27.175 26.7833C27.3938 27.0021 27.6906 27.125 28 27.125C28.3094 27.125 28.6062 27.0021 28.825 26.7833C29.0437 26.5645 29.1667 26.2678 29.1667 25.9584C29.1667 25.2076 29.4971 24.9307 30.3128 24.3235C31.3063 23.5829 32.6667 22.57 32.6667 20.125C32.6653 18.8878 32.1731 17.7016 31.2983 16.8268C30.4234 15.9519 29.2372 15.4598 28 15.4584V15.4584Z" fill="#529DD6"/>
<path d="M28 29.4584C27.5385 29.4584 27.0874 29.5952 26.7037 29.8516C26.3199 30.108 26.0209 30.4724 25.8443 30.8988C25.6677 31.3251 25.6215 31.7943 25.7115 32.2469C25.8015 32.6995 26.0238 33.1153 26.3501 33.4416C26.6764 33.7679 27.0922 33.9902 27.5448 34.0802C27.9974 34.1702 28.4666 34.124 28.8929 33.9474C29.3193 33.7708 29.6837 33.4718 29.9401 33.088C30.1965 32.7043 30.3333 32.2532 30.3333 31.7917C30.3327 31.1731 30.0867 30.5799 29.6492 30.1425C29.2118 29.705 28.6186 29.459 28 29.4584V29.4584Z" fill="#529DD6"/>
</svg>
