<svg width="8" height="12" viewBox="0 0 8 12" fill="none" xmlns="http://www.w3.org/2000/svg">
<path d="M6.93501 0.141843L5.4122 0.139404C3.70137 0.139404 2.59576 1.2716 2.59576 3.02397V4.35395H1.06464C0.932336 4.35395 0.825195 4.46101 0.825195 4.59307V6.52005C0.825195 6.65211 0.932458 6.75905 1.06464 6.75905H2.59576V11.6215C2.59576 11.7535 2.7029 11.8604 2.83521 11.8604H4.83289C4.96519 11.8604 5.07233 11.7534 5.07233 11.6215V6.75905H6.86257C6.99488 6.75905 7.10202 6.65211 7.10202 6.52005L7.10275 4.59307C7.10275 4.52966 7.07746 4.46893 7.03263 4.42406C6.98779 4.37919 6.92671 4.35395 6.86318 4.35395H5.07233V3.22651C5.07233 2.68462 5.20171 2.40952 5.90893 2.40952L6.93477 2.40916C7.06695 2.40916 7.1741 2.3021 7.1741 2.17016V0.380841C7.1741 0.249027 7.06708 0.142087 6.93501 0.141843Z" fill="#4267B2"/>
</svg>
