<svg width="14" height="14" viewBox="0 0 14 14" fill="none" xmlns="http://www.w3.org/2000/svg">
<path d="M9.9355 1.14209L8.41269 1.13965C6.70186 1.13965 5.59625 2.27184 5.59625 4.02421V5.35419H4.06513C3.93282 5.35419 3.82568 5.46125 3.82568 5.59331V7.5203C3.82568 7.65236 3.93295 7.7593 4.06513 7.7593H5.59625V12.6217C5.59625 12.7538 5.70339 12.8607 5.8357 12.8607H7.83337C7.96568 12.8607 8.07282 12.7536 8.07282 12.6217V7.7593H9.86306C9.99536 7.7593 10.1025 7.65236 10.1025 7.5203L10.1032 5.59331C10.1032 5.5299 10.0779 5.46918 10.0331 5.4243C9.98828 5.37943 9.9272 5.35419 9.86367 5.35419H8.07282V4.22675C8.07282 3.68486 8.2022 3.40977 8.90942 3.40977L9.93526 3.4094C10.0674 3.4094 10.1746 3.30234 10.1746 3.1704V1.38109C10.1746 1.24927 10.0676 1.14233 9.9355 1.14209Z" fill="#4267B2"/>
</svg>
