<svg width="14" height="14" viewBox="0 0 14 14" fill="none" xmlns="http://www.w3.org/2000/svg">
<g clip-path="url(#clip0_2_1269)">
<path d="M7.00135 3.4043C5.01626 3.4043 3.40918 5.01313 3.40918 6.99646C3.40918 8.98155 5.01801 10.5886 7.00135 10.5886C8.98643 10.5886 10.5935 8.9798 10.5935 6.99646C10.5935 5.01138 8.98468 3.4043 7.00135 3.4043ZM7.00135 9.32805C5.71276 9.32805 4.66976 8.28446 4.66976 6.99646C4.66976 5.70846 5.71335 4.66488 7.00135 4.66488C8.28935 4.66488 9.33293 5.70846 9.33293 6.99646C9.33351 8.28446 8.28993 9.32805 7.00135 9.32805Z" fill="black"/>
<path d="M7.00135 3.4043C5.01626 3.4043 3.40918 5.01313 3.40918 6.99646C3.40918 8.98155 5.01801 10.5886 7.00135 10.5886C8.98643 10.5886 10.5935 8.9798 10.5935 6.99646C10.5935 5.01138 8.98468 3.4043 7.00135 3.4043ZM7.00135 9.32805C5.71276 9.32805 4.66976 8.28446 4.66976 6.99646C4.66976 5.70846 5.71335 4.66488 7.00135 4.66488C8.28935 4.66488 9.33293 5.70846 9.33293 6.99646C9.33351 8.28446 8.28993 9.32805 7.00135 9.32805Z" fill="url(#paint0_linear_2_1269)"/>
<path d="M9.88622 0.0449521C8.59822 -0.0151312 5.40797 -0.0122146 4.11881 0.0449521C2.98597 0.0980355 1.98672 0.371619 1.18114 1.1772C-0.165195 2.52354 0.00688843 4.3377 0.00688843 6.99829C0.00688843 9.72129 -0.144778 11.4935 1.18114 12.8194C2.53272 14.1704 4.37314 13.9936 7.00222 13.9936C9.69956 13.9936 10.6306 13.9954 11.5843 13.6261C12.8811 13.1227 13.8599 11.9636 13.9556 9.8817C14.0162 8.59312 14.0127 5.40345 13.9556 4.11429C13.8401 1.6567 12.5211 0.166285 9.88622 0.0449521ZM11.925 11.9286C11.0424 12.8112 9.81797 12.7325 6.98531 12.7325C4.06864 12.7325 2.89906 12.7756 2.04564 11.9199C1.06272 10.9416 1.24064 9.3707 1.24064 6.98895C1.24064 3.76604 0.909889 1.44495 4.14447 1.27929C4.88764 1.25304 5.10639 1.24429 6.97714 1.24429L7.00339 1.26179C10.112 1.26179 12.5509 0.936285 12.6973 4.17029C12.7306 4.9082 12.7381 5.12987 12.7381 6.9977C12.7376 9.88054 12.7924 11.0571 11.925 11.9286Z" fill="black"/>
<path d="M9.88622 0.0449521C8.59822 -0.0151312 5.40797 -0.0122146 4.11881 0.0449521C2.98597 0.0980355 1.98672 0.371619 1.18114 1.1772C-0.165195 2.52354 0.00688843 4.3377 0.00688843 6.99829C0.00688843 9.72129 -0.144778 11.4935 1.18114 12.8194C2.53272 14.1704 4.37314 13.9936 7.00222 13.9936C9.69956 13.9936 10.6306 13.9954 11.5843 13.6261C12.8811 13.1227 13.8599 11.9636 13.9556 9.8817C14.0162 8.59312 14.0127 5.40345 13.9556 4.11429C13.8401 1.6567 12.5211 0.166285 9.88622 0.0449521ZM11.925 11.9286C11.0424 12.8112 9.81797 12.7325 6.98531 12.7325C4.06864 12.7325 2.89906 12.7756 2.04564 11.9199C1.06272 10.9416 1.24064 9.3707 1.24064 6.98895C1.24064 3.76604 0.909889 1.44495 4.14447 1.27929C4.88764 1.25304 5.10639 1.24429 6.97714 1.24429L7.00339 1.26179C10.112 1.26179 12.5509 0.936285 12.6973 4.17029C12.7306 4.9082 12.7381 5.12987 12.7381 6.9977C12.7376 9.88054 12.7924 11.0571 11.925 11.9286Z" fill="url(#paint1_linear_2_1269)"/>
<path d="M10.7352 4.10144C11.1988 4.10144 11.5746 3.72562 11.5746 3.26202C11.5746 2.79843 11.1988 2.42261 10.7352 2.42261C10.2716 2.42261 9.89575 2.79843 9.89575 3.26202C9.89575 3.72562 10.2716 4.10144 10.7352 4.10144Z" fill="black"/>
<path d="M10.7352 4.10144C11.1988 4.10144 11.5746 3.72562 11.5746 3.26202C11.5746 2.79843 11.1988 2.42261 10.7352 2.42261C10.2716 2.42261 9.89575 2.79843 9.89575 3.26202C9.89575 3.72562 10.2716 4.10144 10.7352 4.10144Z" fill="url(#paint2_linear_2_1269)"/>
</g>
<defs>
<linearGradient id="paint0_linear_2_1269" x1="4.93585" y1="9.78039" x2="9.69547" y2="4.84116" gradientUnits="userSpaceOnUse">
<stop stop-color="#EEA054"/>
<stop offset="0.502762" stop-color="#D64763"/>
<stop offset="1" stop-color="#B62A99"/>
</linearGradient>
<linearGradient id="paint1_linear_2_1269" x1="2.97476" y1="12.4262" x2="12.2499" y2="2.80119" gradientUnits="userSpaceOnUse">
<stop stop-color="#EEA054"/>
<stop offset="0.502762" stop-color="#D64763"/>
<stop offset="1" stop-color="#B62A99"/>
</linearGradient>
<linearGradient id="paint2_linear_2_1269" x1="10.2525" y1="3.91257" x2="11.3647" y2="2.75837" gradientUnits="userSpaceOnUse">
<stop stop-color="#EEA054"/>
<stop offset="0.502762" stop-color="#D64763"/>
<stop offset="1" stop-color="#B62A99"/>
</linearGradient>
<clipPath id="clip0_2_1269">
<rect width="14" height="14" fill="white"/>
</clipPath>
</defs>
</svg>
