<svg width="32" height="32" viewBox="0 0 32 32" fill="none" xmlns="http://www.w3.org/2000/svg">
<rect width="32" height="32" rx="16" fill="#419FD9"/>
<path fill-rule="evenodd" clip-rule="evenodd" d="M19.5567 23.9229C20.6751 24.4121 21.0944 23.387 21.0944 23.387L24.0534 8.5224C24.0301 7.52055 22.6788 8.12632 22.6788 8.12632L6.11335 14.6267C6.11335 14.6267 5.32119 14.9063 5.39109 15.3955C5.46098 15.8848 6.09005 16.1178 6.09005 16.1178L10.2605 17.5157C10.2605 17.5157 11.5187 21.6396 11.7749 22.4318C12.0079 23.2006 12.2176 23.2239 12.2176 23.2239C12.4506 23.3171 12.6603 23.154 12.6603 23.154L15.363 20.7076L19.5567 23.9229ZM20.2793 11.1551C20.2793 11.1551 20.8618 10.8056 20.8385 11.1551C20.8385 11.1551 20.9317 11.2017 20.6288 11.5279C20.3492 11.8075 13.7557 17.7254 12.8703 18.5175C12.8004 18.5641 12.7538 18.634 12.7538 18.7272L12.4975 20.9173C12.4509 21.1503 12.148 21.1736 12.0781 20.9639L10.9831 17.3759C10.9365 17.2361 10.9831 17.073 11.1229 16.9798L20.2793 11.1551Z" fill="white"/>
</svg>
