<svg width="16" height="12" viewBox="0 0 16 12" fill="none" xmlns="http://www.w3.org/2000/svg">
<path d="M15.5 1.41976C14.9479 1.66069 14.3555 1.82409 13.7331 1.89703C14.3686 1.52223 14.8551 0.927746 15.0857 0.221545C14.4896 0.568635 13.8316 0.820666 13.1304 0.957291C12.569 0.367415 11.7704 0 10.8846 0C9.1853 0 7.80746 1.357 7.80746 3.02972C7.80746 3.26695 7.83464 3.49866 7.88714 3.72023C5.33017 3.59374 3.06283 2.38722 1.54533 0.553862C1.28006 1.00067 1.12916 1.52129 1.12916 2.07704C1.12916 3.12849 1.6728 4.05624 2.49764 4.59902C1.99336 4.58241 1.51908 4.44579 1.10386 4.21869V4.25654C1.10386 5.72432 2.1649 6.94931 3.57179 7.22811C3.31402 7.29642 3.04221 7.33427 2.76102 7.33427C2.56232 7.33427 2.37017 7.31489 2.18176 7.27795C2.57354 8.48264 3.70958 9.35868 5.05556 9.3827C4.00296 10.1951 2.67572 10.6779 1.23415 10.6779C0.985776 10.6779 0.741123 10.6631 0.500244 10.6363C1.86216 11.4976 3.47902 11.9998 5.21679 11.9998C10.8772 11.9998 13.9713 7.38228 13.9713 3.37775L13.9609 2.98542C14.5655 2.56075 15.0885 2.02719 15.5 1.41976Z" fill="#1DA1F2"/>
</svg>
