<svg width="50" height="50" viewBox="0 0 50 50" fill="none" xmlns="http://www.w3.org/2000/svg">
<g clip-path="url(#clip0)">
<path d="M25.3208 18.5562C22.504 18.5562 20.2205 20.8396 20.2205 23.6564C20.2205 26.4732 22.5039 28.7567 25.3208 28.7567C28.1375 28.7567 30.421 26.4733 30.421 23.6564C30.421 20.8396 28.1376 18.5562 25.3208 18.5562ZM25.3208 26.3279C23.8453 26.3279 22.6492 25.1318 22.6492 23.6563C22.6492 22.1808 23.8453 20.9847 25.3208 20.9847C26.7962 20.9847 27.9924 22.1808 27.9924 23.6563C27.9924 25.1318 26.7962 26.3279 25.3208 26.3279Z" fill="#04092A"/>
<path d="M45.6612 6.89836L12.5095 3.13398C11.2228 2.95105 9.91924 3.32667 8.92721 4.16622C7.9353 4.93534 7.29948 6.07543 7.16641 7.32348L6.55929 12.3023H4.67693C2.00534 12.3023 0.00164086 14.6702 0.00164086 17.3418V42.1752C-0.0656487 44.7228 1.94502 46.8427 4.49273 46.91C4.55409 46.9116 4.61557 46.912 4.67693 46.9111H38.0107C40.6823 46.9111 43.111 44.8468 43.111 42.1752V41.2037C43.9393 41.0437 44.725 40.7128 45.4183 40.2323C46.402 39.404 47.0319 38.231 47.1791 36.9536L49.9721 12.3023C50.2568 9.62458 48.3352 7.21575 45.6612 6.89836ZM40.6823 42.1752C40.6823 43.511 39.3465 44.4824 38.0107 44.4824H4.67693C3.47025 44.5179 2.46335 43.5684 2.4279 42.3617C2.42604 42.2995 2.42685 42.2374 2.43034 42.1752V37.6821L11.8416 30.7604C12.9721 29.8923 14.5645 29.9695 15.6061 30.9425L22.2243 36.7713C23.2293 37.6152 24.4945 38.0869 25.8067 38.1071C26.8326 38.1197 27.8417 37.8465 28.7212 37.3178L40.6824 30.396V42.1752H40.6823ZM40.6823 27.5423L27.4459 35.2534C26.3093 35.9268 24.8707 35.8049 23.8635 34.9499L17.1847 29.0602C15.2704 27.4154 12.4726 27.3145 10.445 28.8173L2.43034 34.6462V17.3418C2.43034 16.006 3.34113 14.731 4.67693 14.731H38.0107C39.4379 14.7902 40.5904 15.9166 40.6823 17.3418V27.5423V27.5423ZM47.5457 11.9745C47.5449 11.9825 47.5442 11.9906 47.5433 11.9987L44.6896 36.6499C44.6945 37.2891 44.403 37.8945 43.9002 38.2892C43.6573 38.5321 43.1109 38.6536 43.1109 38.775V17.3418C43.015 14.5758 40.7776 12.365 38.0106 12.3023H8.98788L9.53433 7.56638C9.65287 6.9531 9.97351 6.39735 10.4451 5.98769C10.9776 5.61951 11.6215 5.44786 12.2667 5.5019L45.3577 9.32706C46.6928 9.45385 47.6725 10.6392 47.5457 11.9745Z" fill="#04092A"/>
</g>
<defs>
<clipPath id="clip0">
<rect width="50" height="50" fill="white"/>
</clipPath>
</defs>
</svg>
