<svg width="28" height="13" viewBox="0 0 28 13" fill="none" xmlns="http://www.w3.org/2000/svg">
<path d="M27.1797 2.33106H25.2404C24.2121 1.35481 22.8243 0.755127 21.2992 0.755127C19.5046 0.755127 17.9001 1.58564 16.8479 2.88296C15.1877 1.56548 12.815 1.56323 11.152 2.88296C10.0997 1.58564 8.49532 0.755127 6.70064 0.755127C5.17557 0.755127 3.78777 1.35486 2.75948 2.33106H0.820312C0.367281 2.33106 0 2.69903 0 3.15291C0 3.6068 0.367281 3.97477 0.820312 3.97477H1.55116C1.17709 4.7374 0.966547 5.59448 0.966547 6.50005C0.966547 9.66781 3.53888 12.245 6.7007 12.245C9.86251 12.245 12.4348 9.66781 12.4348 6.50005C12.4348 5.72691 12.2812 4.9891 12.0036 4.31518C13.1286 3.27943 14.8699 3.278 15.9964 4.31518C15.7188 4.9891 15.5652 5.72691 15.5652 6.50005C15.5652 9.66781 18.1375 12.245 21.2994 12.245C24.4612 12.245 27.0335 9.66781 27.0335 6.50005C27.0335 5.59448 26.823 4.7374 26.4489 3.97477H27.1797C27.6327 3.97477 28 3.6068 28 3.15291C28 2.69903 27.6327 2.33106 27.1797 2.33106ZM6.7007 10.6013C4.44352 10.6013 2.60717 8.76147 2.60717 6.50005C2.60717 4.23864 4.44352 2.39884 6.7007 2.39884C8.95787 2.39884 10.7942 4.23864 10.7942 6.50005C10.7942 8.76147 8.95787 10.6013 6.7007 10.6013ZM21.2993 10.6013C19.0421 10.6013 17.2058 8.76147 17.2058 6.50005C17.2058 4.23864 19.0421 2.39884 21.2993 2.39884C23.5565 2.39884 25.3928 4.23864 25.3928 6.50005C25.3928 8.76147 23.5565 10.6013 21.2993 10.6013Z" fill="white"/>
</svg>
