<svg width="16" height="11" viewBox="0 0 16 11" fill="none" xmlns="http://www.w3.org/2000/svg">
<path d="M7.99984 2.00033C10.5265 2.00033 12.7798 3.42033 13.8798 5.66699C12.7798 7.91366 10.5265 9.33366 7.99984 9.33366C5.47317 9.33366 3.21984 7.91366 2.11984 5.66699C3.21984 3.42033 5.47317 2.00033 7.99984 2.00033ZM7.99984 0.666992C4.6665 0.666992 1.81984 2.74033 0.666504 5.66699C1.81984 8.59366 4.6665 10.667 7.99984 10.667C11.3332 10.667 14.1798 8.59366 15.3332 5.66699C14.1798 2.74033 11.3332 0.666992 7.99984 0.666992ZM7.99984 4.00033C8.91984 4.00033 9.6665 4.74699 9.6665 5.66699C9.6665 6.58699 8.91984 7.33366 7.99984 7.33366C7.07984 7.33366 6.33317 6.58699 6.33317 5.66699C6.33317 4.74699 7.07984 4.00033 7.99984 4.00033ZM7.99984 2.66699C6.3465 2.66699 4.99984 4.01366 4.99984 5.66699C4.99984 7.32033 6.3465 8.66699 7.99984 8.66699C9.65317 8.66699 10.9998 7.32033 10.9998 5.66699C10.9998 4.01366 9.65317 2.66699 7.99984 2.66699Z" fill="#BDBDBD"/>
</svg>
