<svg width="24" height="25" viewBox="0 0 24 25" fill="none" xmlns="http://www.w3.org/2000/svg">
<path d="M13.8467 1.22911C12.7747 0.77543 11.5904 0.99993 10.7618 1.81374C10.7431 1.83245 10.7244 1.85584 10.7057 1.87455L5.40667 8.01556H3.76828C1.68988 8.01556 0 9.70398 0 11.7806V14.2127C0 16.2893 1.68988 17.9777 3.76828 17.9777H5.40667L10.701 24.1188C10.7197 24.1421 10.7384 24.1609 10.7572 24.1796C11.2955 24.7081 11.9976 24.998 12.7326 24.998C13.1164 24.998 13.4909 24.9185 13.8514 24.7689C14.9327 24.3152 15.5787 22.8513 15.5787 21.696V3.8436C15.5834 2.68368 14.914 1.68278 13.8467 1.22911ZM1.91925 11.7806C1.91925 10.761 2.7478 9.93316 3.76828 9.93316H5.84669C6.12755 9.93316 6.3897 9.81156 6.57226 9.60109L12.124 3.16074C12.5266 2.79125 12.9713 2.94092 13.1024 2.99237C13.2335 3.04849 13.6641 3.27299 13.6641 3.8436V21.6867C13.6641 22.2526 13.2381 22.9401 13.1071 22.9916C12.976 23.0477 12.5266 23.1927 12.124 22.8232L6.57226 16.3922C6.3897 16.1817 6.12287 16.0601 5.84669 16.0601H3.76828C2.7478 16.0601 1.91925 15.2323 1.91925 14.2127V11.7806Z" fill="white"/>
<path d="M19.5338 15.6956L19.5572 15.6582C19.8006 15.2092 20.2594 14.3673 20.2594 12.997C20.2594 11.5704 19.7632 10.7005 19.5245 10.2796C19.2623 9.82121 18.6772 9.65752 18.2184 9.91943C17.7597 10.1813 17.5959 10.766 17.858 11.2243C18.0499 11.5658 18.3401 12.0756 18.3401 12.997C18.3401 13.8809 18.0593 14.4001 17.872 14.7415L17.8486 14.7836C17.7269 15.0081 17.6988 15.2653 17.7737 15.5132C17.8486 15.7564 18.0125 15.9622 18.2372 16.0838C18.3776 16.1587 18.5368 16.2008 18.6959 16.2008C19.047 16.1961 19.37 16.0043 19.5338 15.6956Z" fill="white"/>
<path d="M20.9102 5.60749C20.7277 5.42976 20.4889 5.33154 20.2362 5.33154H20.2315C19.974 5.33154 19.7353 5.43444 19.5527 5.61685C19.3702 5.79925 19.2718 6.03778 19.2765 6.29502C19.2765 6.55226 19.3795 6.79079 19.5621 6.9732C21.1911 8.58212 22.0852 10.7242 22.0852 12.9973C22.0852 15.275 21.1911 17.4171 19.5621 19.026C19.3795 19.2085 19.2812 19.447 19.2765 19.7042C19.2765 19.9615 19.3748 20.2 19.5527 20.3824C19.7353 20.5648 19.974 20.6677 20.2362 20.6677C20.4889 20.6677 20.7324 20.5695 20.9102 20.3918C22.9044 18.418 23.9998 15.7942 23.9998 12.9973C24.0044 10.2004 22.9044 7.58122 20.9102 5.60749Z" fill="white"/>
</svg>
