<svg width="26" height="18" viewBox="0 0 26 18" fill="none" xmlns="http://www.w3.org/2000/svg">
<path fill-rule="evenodd" clip-rule="evenodd" d="M23.4659 3.07111L23.4646 3.06631C23.2859 2.40241 22.7594 1.87592 22.0955 1.69718L22.0907 1.69589C21.7257 1.59599 20.9748 1.50023 19.9511 1.42383C18.9617 1.34998 17.8133 1.30016 16.7148 1.26675C15.6182 1.23341 14.5812 1.2167 13.8178 1.20834C13.4363 1.20416 13.1237 1.20208 12.9068 1.20104C12.7983 1.20052 12.7139 1.20026 12.6567 1.20013L12.5706 1.2L12.5706 0C12.5706 0 20.4401 0 22.4075 0.538442C23.4844 0.828372 24.3334 1.67745 24.6234 2.75434C25.1618 4.72172 25.1411 8.82217 25.1411 8.82217C25.1411 8.82217 25.1411 12.9019 24.6234 14.8693C24.3334 15.9462 23.4844 16.7952 22.4075 17.0852C20.4401 17.6029 12.5706 17.6029 12.5706 17.6029L12.5706 16.4029L12.6568 16.4028C12.714 16.4027 12.7985 16.4024 12.907 16.4019C13.124 16.4009 13.4367 16.3989 13.8183 16.3949C14.5819 16.3869 15.6192 16.3708 16.7162 16.3387C17.815 16.3066 18.9642 16.2586 19.9546 16.1876C20.9749 16.1143 21.7283 16.0224 22.0987 15.9256C22.76 15.7463 23.2845 15.2218 23.4638 14.5604C23.6869 13.7103 23.8131 12.3145 23.878 11.0467C23.9095 10.4294 23.9253 9.87104 23.9332 9.46688C23.9372 9.26506 23.9392 9.10236 23.9401 8.99079C23.9406 8.93503 23.9409 8.89208 23.941 8.86347L23.9411 8.83149L23.9411 8.82393V8.82231M23.9411 8.82231V8.8161L23.9412 8.80685L23.9412 8.77484C23.9412 8.74617 23.9412 8.7031 23.941 8.64715C23.9405 8.53523 23.9392 8.37196 23.9361 8.16944C23.9297 7.76382 23.9158 7.20355 23.8856 6.58461C23.8233 5.30949 23.6964 3.91333 23.4659 3.07111M0 8.80146C0 8.80146 0 12.9019 0.517733 14.8486C0.807663 15.9255 1.65674 16.7745 2.73363 17.0645C4.72172 17.6029 12.5706 17.6029 12.5706 17.6029L12.5706 16.4029L12.4846 16.4028C12.4276 16.4027 12.3434 16.4024 12.2352 16.4019C12.0188 16.4008 11.7069 16.3987 11.3263 16.3946C10.5644 16.3862 9.5294 16.3695 8.43414 16.3362C7.33694 16.3028 6.18907 16.2529 5.19861 16.1791C4.17494 16.1027 3.41939 16.007 3.04733 15.9062L3.0456 15.9057C2.38227 15.7271 1.85611 15.2014 1.67693 14.5383C1.45455 13.7008 1.32808 12.3063 1.26316 11.0339C1.2316 10.4153 1.21578 9.85499 1.20786 9.44917C1.20391 9.24653 1.20194 9.08309 1.20097 8.97098C1.20048 8.91494 1.20024 8.87178 1.20012 8.84301L1.20001 8.81085L1.2 8.80161L1.20001 8.79213L1.20012 8.76015C1.20024 8.73154 1.20048 8.68859 1.20097 8.63283C1.20194 8.52126 1.20391 8.35857 1.20786 8.15675C1.21577 7.75258 1.2316 7.19417 1.26315 6.57694C1.32797 5.30918 1.45424 3.91339 1.67729 3.06326C1.8573 2.39921 2.40465 1.85489 3.04528 1.67658C3.41671 1.58003 4.16884 1.48838 5.18654 1.41534C6.17689 1.34426 7.3261 1.29633 8.42493 1.2642C9.52187 1.23213 10.5592 1.21606 11.3228 1.20802C11.7044 1.20401 12.0171 1.202 12.2341 1.201C12.3426 1.2005 12.4271 1.20025 12.4843 1.20012L12.5706 1.2L12.5706 0C12.5706 0 4.70101 0 2.73363 0.517733C1.67745 0.807663 0.807663 1.67745 0.517733 2.75434C0 4.72172 0 8.80146 0 8.80146ZM8.86477 14.5027V2.81263L19.0133 8.65766L8.86477 14.5027ZM16.6089 8.65766L10.0648 4.88857V12.4268L16.6089 8.65766Z" fill="white"/>
</svg>
