<svg width="129" height="64" viewBox="0 0 129 64" fill="none" xmlns="http://www.w3.org/2000/svg">
<g clip-path="url(#clip0_2_345)">
<path fill-rule="evenodd" clip-rule="evenodd" d="M0.759766 52.896H9.05596V54.5965H6.01792V63.0216H3.79781V54.5965H0.759766V52.896Z" fill="white"/>
<path fill-rule="evenodd" clip-rule="evenodd" d="M10.1851 63.0216V52.896H12.4052V56.9153H16.2611V52.896H18.4813V63.0216H16.2611V58.5772H12.4052V63.0216H10.1851Z" fill="white"/>
<path fill-rule="evenodd" clip-rule="evenodd" d="M20.2344 52.896H27.0894V54.5965H22.4545V56.954H26.7779V58.6544H22.4545V61.3598H27.2452V63.0216H20.2344V52.896Z" fill="white"/>
<path fill-rule="evenodd" clip-rule="evenodd" d="M37.9562 52.896H40.449L42.2017 60.5095H42.2407L43.8765 52.896H45.9798L43.3702 63.0216H40.9553L39.1247 55.3308H39.0858L37.0994 63.0216H34.6065L32.1138 52.896H34.4118L35.9698 60.5095H36.0088L37.9562 52.896Z" fill="white"/>
<path fill-rule="evenodd" clip-rule="evenodd" d="M46.7202 57.9587C46.7202 54.9828 48.2392 52.7026 51.6278 52.7026C55.0164 52.7026 56.5354 54.9828 56.5354 57.9587C56.5354 60.9345 55.0164 63.2147 51.6278 63.2147C48.2392 63.2534 46.7202 60.9345 46.7202 57.9587ZM49.0572 57.9587C49.0572 59.6978 49.4856 61.6688 51.6278 61.6688C53.77 61.6688 54.1985 59.6978 54.1985 57.9587C54.1985 56.2195 53.77 54.2485 51.6278 54.2485C49.4467 54.2485 49.0572 56.2195 49.0572 57.9587Z" fill="white"/>
<path fill-rule="evenodd" clip-rule="evenodd" d="M60.1567 63.0216H57.9756V52.896H62.299C64.0517 52.896 65.8433 53.4757 65.8433 55.524C65.8433 56.838 64.9865 57.7269 63.7401 57.9588V57.9974C65.4149 58.1907 65.4149 59.1955 65.6096 60.5868C65.7265 61.2438 65.8044 62.4419 66.1939 62.9829H63.779C63.5843 62.0941 63.5064 61.1665 63.3895 60.2776C63.3506 59.7366 63.1948 58.9636 62.4548 58.925H60.1567V63.0216ZM60.1567 57.2631H61.9874C62.9611 57.2631 63.5064 56.7607 63.5064 55.8718C63.5064 54.983 62.9611 54.5965 61.9874 54.5965H60.1567V57.2631Z" fill="white"/>
<path fill-rule="evenodd" clip-rule="evenodd" d="M67.5181 63.0216V52.896H69.6992V61.3598H74.1394V63.0216H67.5181Z" fill="white"/>
<path fill-rule="evenodd" clip-rule="evenodd" d="M75.3081 52.8962H78.7746C81.9684 52.8576 83.9159 54.4421 83.9159 57.959C83.9159 61.4759 81.9295 63.0604 78.7746 63.0218H75.3081V52.8962ZM77.5282 61.36H78.6577C81.2673 61.3986 81.6568 59.5822 81.6568 57.9976C81.6568 56.3745 81.2673 54.5967 78.6577 54.6353H77.5282V61.36Z" fill="white"/>
<path fill-rule="evenodd" clip-rule="evenodd" d="M89.4858 63.0216V52.896H93.3029C95.1335 52.7801 97.003 53.553 97.003 55.524C97.003 56.6448 96.2241 57.4178 95.2114 57.7269V57.7656C96.4967 58.0361 97.4704 58.925 97.4704 60.3936C97.4704 62.4033 94.9387 63.1376 93.3418 63.0216H89.4858ZM93.3808 61.3598C94.3934 61.3598 95.1335 61.1666 95.1335 60.0071C95.1335 58.8477 94.4324 58.6545 93.3808 58.6545H91.667V61.3598H93.3808ZM93.3808 56.954C94.3155 56.954 94.8219 56.5675 94.8219 55.7559C94.8219 54.9443 94.3155 54.5579 93.3808 54.5579H91.667V56.954H93.3808Z" fill="white"/>
<path fill-rule="evenodd" clip-rule="evenodd" d="M98.1333 63.0216L101.833 52.896H104.443L107.987 63.0216H105.767L105.027 60.896H100.977L100.198 63.0216H98.1333ZM104.482 59.1955L103.08 54.867L101.6 59.1955H104.482Z" fill="white"/>
<path fill-rule="evenodd" clip-rule="evenodd" d="M115.192 63.0216L111.181 54.5965L111.142 54.6351V63.0216H109.116V52.896H112.349L116.244 60.8573L116.283 60.8187V52.896H118.308V63.0216H115.192Z" fill="white"/>
<path fill-rule="evenodd" clip-rule="evenodd" d="M122.32 57.2631L125.708 52.896H128.279L124.54 57.4177L128.591 63.0216H125.864L122.32 57.8815V63.0216H120.1V52.896H122.32V57.2631Z" fill="white"/>
<path fill-rule="evenodd" clip-rule="evenodd" d="M69.8939 38.2101C72.9319 38.1714 75.8142 37.7463 78.3459 36.896C78.9691 36.6642 79.5923 36.4323 80.1765 36.2004C79.4754 37.9009 78.4238 39.3308 77.0606 40.413C74.3731 42.384 71.2182 43.698 67.7906 44.239C68.6865 42.7318 69.3486 40.6448 69.8939 38.2101ZM55.6384 42.384C55.5605 42.3453 55.5216 42.268 55.4437 42.2294C54.2363 41.6497 53.7689 39.0217 54.3921 35.0023C56.6901 36.0072 59.1828 36.8187 61.7924 37.3985C63.7788 37.8236 65.7653 38.0941 67.6738 38.1714C66.739 42.268 65.4926 44.3936 64.7136 44.3936C64.6747 44.3936 64.5968 44.3936 64.5578 44.3936C61.364 44.3936 58.3259 43.6593 55.6384 42.384ZM44.5768 29.3599C44.3821 28.6642 44.2653 27.9685 44.2263 27.2342C44.9274 28.2391 45.8232 29.2439 46.8749 30.1714C48.4328 31.6014 50.3024 32.9154 52.3667 33.9975C51.9383 36.355 51.8214 38.4806 52.0941 40.2197C48.5107 37.5531 45.8232 33.727 44.5768 29.3599ZM71.2571 23.64C71.2571 22.7898 71.2571 21.9782 71.2182 21.128C73.9057 20.9347 76.3595 20.2777 78.3848 19.1183C80.2544 22.7898 81.2671 26.6932 81.2671 30.326C81.2671 31.3695 81.1892 32.413 80.9944 33.3405C80.0207 33.9202 78.9301 34.4226 77.6837 34.8477C75.4636 35.582 72.9709 36.0072 70.3223 36.0458C70.9455 32.2971 71.2571 27.8913 71.2571 23.64ZM62.2209 35.3115C64.2073 35.7366 66.1937 35.9685 68.1022 36.0458C68.6865 32.7995 69.076 28.6256 69.076 23.6014C69.076 22.7512 69.076 21.9396 69.037 21.128C67.7127 21.0893 66.3884 20.9347 65.0642 20.6256C63.3115 20.2391 61.6366 19.698 60.0787 19.041C59.7281 19.6594 59.4165 20.3164 59.1049 20.9734C56.8848 25.4565 55.5216 29.5144 54.7816 32.8381C57.0406 33.8815 59.5723 34.7318 62.2209 35.3115ZM48.316 28.6256C49.6013 29.8236 51.1203 30.9057 52.8341 31.8333C53.7299 28.0458 55.2879 23.9106 57.1964 20.0458C57.508 19.3888 57.8586 18.7318 58.2091 18.1135C56.9627 17.4178 55.8721 16.6062 54.8984 15.7173C53.8857 14.7898 53.1067 13.785 52.5614 12.7801C50.614 14.1714 48.9002 15.7946 47.537 17.5724C46.0959 19.4661 45.1221 21.4371 44.6158 23.4082C45.239 25.1859 46.4854 26.9637 48.316 28.6256ZM69.777 8.83811C72.2308 10.6545 74.451 12.9734 76.3205 15.6787C76.6711 16.1811 77.0216 16.7222 77.3332 17.2632C75.6194 18.2294 73.4383 18.8478 71.1013 19.0024C70.9066 15.2922 70.4781 11.7753 69.777 8.83811ZM65.5316 18.5772C63.9736 18.2294 62.4935 17.7656 61.1303 17.1859C63.1167 13.7077 65.3368 10.6932 67.479 8.45164C68.1412 11.0797 68.7254 14.6352 68.9591 19.0024C67.8296 18.9637 66.6611 18.8478 65.5316 18.5772ZM56.3785 14.1328C55.4826 13.3212 54.8205 12.4323 54.3531 11.5821C56.3785 10.384 58.5986 9.41782 60.9745 8.68352C62.3767 8.2584 63.8178 7.94922 65.22 7.71734C63.1557 9.99753 61.1303 12.8961 59.2218 16.1811C58.1702 15.6014 57.1964 14.9057 56.3785 14.1328ZM51.7435 7.36951C51.7046 7.48545 51.6656 7.6014 51.6656 7.67869C51.4319 8.68352 51.4709 9.727 51.7435 10.7318C49.4455 12.3164 47.4201 14.1714 45.8232 16.297C45.3169 16.9541 44.8884 17.5724 44.4989 18.2294C45.6674 13.9009 48.277 10.0748 51.7435 7.36951ZM53.7689 8.14246C53.691 8.60623 53.652 9.06999 53.691 9.53376C55.7553 8.37434 57.9754 7.40816 60.3513 6.71251C61.6366 6.32603 62.922 6.0555 64.2073 5.82362C61.1303 4.70284 58.248 4.54826 55.7163 5.28256C54.6647 6.0555 54.0026 7.02168 53.7689 8.14246ZM71.1792 5.3212C71.9192 4.85743 72.5814 4.50961 73.1656 4.39367C74.2562 4.81879 75.3078 5.35985 76.3205 6.0555C74.6846 5.66903 72.9709 5.43714 71.1792 5.3212ZM67.5569 3.04101C68.4138 3.1183 69.3486 3.27289 70.3223 3.50478C69.7381 3.81396 69.1149 4.23908 68.4917 4.70284C68.1801 4.08449 67.8685 3.54342 67.5569 3.04101ZM65.22 3.89125C64.2462 3.50478 63.2725 3.23425 62.3377 3.04101C63.0778 2.96371 63.8567 2.92507 64.6357 2.92507C64.9863 2.92507 65.4537 3.35019 65.9211 4.20043C65.6874 4.08449 65.4537 3.96855 65.22 3.89125ZM41.6167 23.6787C41.6167 25.8429 41.9283 27.9685 42.5125 29.9396C42.5515 30.0942 42.5904 30.2101 42.6294 30.326C42.6294 30.3647 42.6294 30.3647 42.6683 30.4033C45.5895 39.7559 54.3531 46.5579 64.7136 46.5579C69.5044 46.5579 73.9446 45.0893 77.6448 42.6159C77.6837 42.6159 77.7227 42.5772 77.7616 42.5386C77.9953 42.384 78.1901 42.2294 78.3848 42.0748C82.6303 38.9444 85.7462 34.4613 87.0705 29.2053C87.1484 28.9734 87.2263 28.7028 87.2653 28.471C87.2653 28.3937 87.2653 28.355 87.2653 28.2777C87.5769 26.7705 87.7327 25.2246 87.7327 23.64C87.7327 20.5483 87.1095 17.5338 85.902 14.7125C85.6683 14.1714 85.0452 13.9009 84.4999 14.1328C83.9546 14.3647 83.6819 14.983 83.9156 15.5241C85.0062 18.0748 85.5515 20.8188 85.5515 23.6014C85.5515 25.3019 85.3178 27.0024 84.9283 28.5869C84.6167 29.5917 84.0714 30.5193 83.2924 31.3695C83.2924 31.0217 83.3314 30.6352 83.3314 30.2874C83.3314 26.1908 82.2019 21.9009 80.0986 17.8429C81.6566 16.5289 82.6303 14.9057 82.9808 13.0893C83.0977 12.5096 82.7082 11.9685 82.124 11.8526C81.5397 11.7367 80.9944 12.1231 80.8776 12.7028C80.6439 13.9009 80.0207 15.0217 79.047 15.9492C78.7354 15.4468 78.4238 14.9444 78.0732 14.442C76.2037 11.698 73.9446 9.34053 71.4908 7.44681C74.7236 7.64004 77.7227 8.45164 80.1375 9.76565C80.527 9.95888 81.0334 9.95888 81.3839 9.68835C81.8513 9.30188 81.8903 8.64487 81.5397 8.18111C78.0732 3.38884 72.114 0.722168 64.7136 0.722168C51.9772 0.760815 41.6167 11.041 41.6167 23.6787Z" fill="white"/>
</g>
<defs>
<clipPath id="clip0_2_345">
<rect width="129" height="63" fill="white" transform="translate(0 0.5)"/>
</clipPath>
</defs>
</svg>
