<svg width="58" height="72" viewBox="0 0 58 72" fill="none" xmlns="http://www.w3.org/2000/svg">
<path fill-rule="evenodd" clip-rule="evenodd" d="M48.7094 11.3208C48.3158 10.8338 47.9058 10.3713 47.3902 9.87566C36.8254 -0.285426 20.0274 0.0456355 9.87106 10.6154C-0.285644 21.1856 0.0456363 37.9914 10.6105 48.1525C11.8752 49.3689 13.2301 50.4334 14.6515 51.3493C14.4713 52.2242 14.3303 53.1043 14.2262 53.9866C12.34 52.8677 10.5512 51.5165 8.9022 49.9303C-2.64417 38.8252 -3.00604 20.4581 8.09377 8.90636C18.8522 -2.29009 36.43 -2.97462 48.014 7.10547C48.3766 7.42123 49.2328 8.12031 50.3304 9.38373C49.8372 9.94545 49.2794 10.5934 48.7094 11.3208Z" fill="white"/>
<path d="M43.1192 59.53C42.2869 59.9182 41.4393 60.272 40.579 60.59C36.8782 61.9587 32.939 62.6757 28.936 62.6757C24.9065 62.6757 20.936 61.946 17.2034 60.5538C16.3812 60.247 15.5709 59.9081 14.7744 59.5375V56.6344C15.8585 57.192 16.9736 57.6847 18.1133 58.1098C21.5399 59.3878 25.2023 60.0578 28.936 60.0578C32.6342 60.0578 36.2693 59.3971 39.6795 58.136C40.8547 57.7011 42.0033 57.1954 43.1192 56.6206V59.53Z" fill="white"/>
<path d="M43.1187 64.6672C41.7447 65.2073 40.3412 65.6686 38.9146 66.0486C35.6701 66.9137 32.3196 67.3571 28.9463 67.3571C25.5734 67.3571 22.2229 66.9137 18.9784 66.0486C17.5518 65.6686 16.1479 65.2073 14.7739 64.6672V61.8433C16.3587 62.5203 17.9856 63.0813 19.6428 63.5232C22.6587 64.3272 25.7857 64.7396 28.9463 64.7396C32.1073 64.7396 35.2343 64.3272 38.2502 63.5232C39.9073 63.0813 41.5343 62.5203 43.1187 61.8433V64.6672Z" fill="white"/>
<path d="M37.9343 71.0689C34.9859 71.6855 31.9746 72.0001 28.9464 72.0001C25.9182 72.0001 22.9068 71.6855 19.9585 71.0689V68.3965C22.893 69.0489 25.9063 69.3822 28.9464 69.3822C31.9865 69.3822 35.0001 69.0489 37.9343 68.3965V71.0689Z" fill="white"/>
<path fill-rule="evenodd" clip-rule="evenodd" d="M21.6926 7.653C21.2087 7.56455 20.7282 7.53731 20.2932 7.5291C17.3729 7.46751 14.8905 9.6465 14.5391 12.5014C12.7894 12.554 11.1583 13.2949 9.92798 14.605C7.88544 16.7795 7.47844 20.0401 8.69613 22.6543C6.4014 24.0315 4.9248 26.6274 4.9248 29.4569C4.9248 32.263 6.37827 34.8383 8.64128 36.2245C8.08206 37.4223 7.91455 38.7443 8.17495 40.0898C8.76365 43.1328 11.4986 45.3555 14.5596 45.4898C14.6898 46.3662 15.005 47.1698 15.4617 47.8592C15.7254 46.9216 16.0384 45.9926 16.401 45.0755C16.804 44.0562 17.2695 43.0507 17.7982 42.0639C17.1837 42.9126 16.2264 43.2306 15.4441 43.3392C13.136 43.6602 10.8144 41.9959 10.3716 39.7061C10.1074 38.3412 10.5954 36.8407 11.5344 35.8404C11.9451 35.4034 11.9049 34.7323 11.4445 34.3419C10.9845 33.9519 10.2779 33.9896 9.86717 34.427C9.86195 34.433 9.8571 34.4389 9.8515 34.4449C8.213 33.4473 7.15909 31.5445 7.15909 29.4569C7.15909 27.3519 8.22941 25.4342 9.89142 24.4436C9.9041 24.4574 9.91493 24.4727 9.92761 24.4869L10.7998 25.4155C11.0207 25.6503 11.3266 25.7701 11.6336 25.7701C11.8985 25.7701 12.1641 25.6813 12.3772 25.5006C12.8375 25.1102 12.8778 24.4391 12.4671 24.0017L11.5948 23.073C11.4367 22.9051 11.2975 22.7248 11.1669 22.5401C11.1524 22.5177 11.1378 22.496 11.1218 22.4751C9.78995 20.5257 9.94403 17.7757 11.5948 16.0184C12.4424 15.1159 13.5587 14.6192 14.7383 14.6192C15.9179 14.6192 17.0345 15.1159 17.8821 16.0184C18.2929 16.4559 18.9991 16.4943 19.4594 16.1035C19.9198 15.7131 19.9597 15.042 19.549 14.6053C18.7562 13.7611 17.7971 13.1527 16.7469 12.8123C16.9345 11.0245 18.4283 9.65097 20.1891 9.65097C20.2093 9.65097 20.2302 9.65134 20.2507 9.65172C20.5398 9.65694 20.8786 9.6715 21.2031 9.7245C21.6952 9.80438 21.7758 9.93463 22.1586 9.87529C22.6596 9.79728 23.0375 9.35014 23.0375 8.82462C23.0375 8.39912 22.7883 8.03185 22.4283 7.86054C22.1977 7.75118 21.9526 7.7004 21.6926 7.653ZM24.5861 26.4889C24.0026 26.3784 23.4371 26.755 23.3244 27.3306C23.2871 27.5206 23.2322 27.7064 23.161 27.8834C23.0905 28.058 23.0039 28.2256 22.9036 28.382C22.8043 28.5354 22.6909 28.6795 22.5659 28.8109C22.4417 28.9411 22.3055 29.0587 22.1627 29.1602C22.0179 29.2625 21.8642 29.3502 21.706 29.4204C21.5452 29.4916 21.3781 29.5461 21.2076 29.5823C20.8618 29.6562 20.4898 29.657 20.141 29.5823C19.972 29.5461 19.8049 29.4916 19.6441 29.4204C19.4855 29.3502 19.3322 29.2621 19.1886 29.1609C19.0446 29.0591 18.9088 28.9411 18.7842 28.8109C18.6596 28.6798 18.5462 28.5358 18.4469 28.382C18.3462 28.2252 18.2597 28.058 18.1899 27.8841C18.1179 27.7061 18.0627 27.5198 18.0261 27.331C17.9134 26.7554 17.3479 26.3773 16.7652 26.4886C16.1806 26.599 15.7978 27.1552 15.9101 27.7311C15.9724 28.0509 16.0653 28.366 16.1873 28.6679C16.2451 28.8112 16.31 28.9516 16.3809 29.0893C16.05 29.4073 15.634 29.62 15.1677 29.698C14.5025 29.8085 13.8138 29.6406 13.227 29.2233C12.7443 28.881 12.0712 28.9881 11.7232 29.4633C11.3751 29.9384 11.484 30.602 11.9668 30.945C12.8069 31.5422 13.7769 31.8546 14.7603 31.8546C15.0162 31.8546 15.2729 31.8337 15.5281 31.7908C16.3708 31.6501 17.1267 31.2832 17.7437 30.7379C17.8067 30.7868 17.8672 30.8394 17.9317 30.8853C18.1929 31.0697 18.4716 31.2283 18.7603 31.3567C19.058 31.4888 19.3688 31.59 19.6829 31.6568C20.0067 31.7266 20.341 31.7621 20.6756 31.7621C21.0106 31.7621 21.3445 31.727 21.6672 31.6572C21.9821 31.59 22.2929 31.4885 22.5909 31.3567C22.8797 31.2283 23.1587 31.0701 23.421 30.8846C23.6773 30.7024 23.9179 30.4942 24.1362 30.265C24.3544 30.0369 24.5518 29.7861 24.723 29.5196C24.8954 29.252 25.0438 28.9661 25.1636 28.6683C25.2848 28.3671 25.3781 28.0524 25.4408 27.7322C25.5527 27.1563 25.1703 26.5998 24.5861 26.4889ZM14.5111 37.13C14.5051 37.1397 14.4991 37.149 14.4932 37.1584L13.5072 38.7782C13.1983 39.2858 13.3807 39.9349 13.9149 40.2283C14.4484 40.5216 15.1319 40.3484 15.4411 39.8416L16.4178 38.2367C17.0584 37.2659 18.1362 36.7344 19.2397 36.7993C20.0067 36.8441 20.5872 37.1181 21.099 37.4678C21.4583 37.0274 22.1101 36.2413 22.4723 35.8001C21.5717 35.1466 20.5715 34.8394 20.3201 34.7816C18.4231 34.3468 16.0448 34.7816 14.5111 37.13ZM41.6785 14.474C43.5867 14.474 45.1334 16.0218 45.1334 17.9305C45.1334 19.84 43.5867 21.3875 41.6785 21.3875C40.1608 21.3875 38.8723 20.4089 38.4078 19.048H29.9788V24.1416V24.2861H35.048C35.5121 22.9252 36.801 21.9466 38.3186 21.9466C40.2269 21.9466 41.7736 23.4941 41.7736 25.4032C41.7736 27.3123 40.2269 28.8601 38.3186 28.8601C36.801 28.8601 35.5121 27.8815 35.048 26.5207H29.9788V28.6011V29.7421C29.2181 30.1668 28.4727 30.6244 27.7452 31.1138V27.2544V24.1424C27.7452 22.5393 26.4861 21.2352 24.9379 21.2352C23.39 21.2352 22.131 22.5393 22.131 24.1424C22.131 24.7287 21.6307 25.2039 21.014 25.2039C20.3969 25.2039 19.897 24.7287 19.897 24.1424C19.897 23.7538 19.9455 23.3772 20.0295 23.0137C19.8452 23.0297 19.6601 23.0383 19.474 23.0383C19.1804 23.0383 18.8849 23.0189 18.5887 22.9786C16.8562 22.7453 15.3206 21.8484 14.266 20.4533C13.9064 19.977 14.0205 19.3142 14.5215 18.9719C15.0226 18.6296 15.7209 18.7382 16.0806 19.2149C16.7763 20.1357 17.7788 20.7257 18.9028 20.8773C21.4322 21.2165 22.2966 19.1119 24.9383 19.1119C25.9765 19.1119 26.942 19.4272 27.7452 19.9666V11.9822C26.429 11.494 25.4915 10.2269 25.4915 8.74026C25.4915 6.83114 27.0382 5.28369 28.9465 5.28369C30.8547 5.28369 32.4014 6.83114 32.4014 8.74026C32.4014 10.29 31.3826 11.6011 29.9788 12.0401V16.8134H32.3306L34.7006 12.707C34.1839 12.1028 33.8721 11.3186 33.8721 10.4613C33.8721 8.55216 35.4188 7.00469 37.327 7.00469C39.2353 7.00469 40.782 8.55216 40.782 10.4613C40.782 12.3704 39.2353 13.9182 37.327 13.9182C37.0853 13.9182 36.8499 13.8932 36.6223 13.8462L34.9096 16.8134H38.4078C38.8723 15.4526 40.1608 14.474 41.6785 14.474ZM38.3186 23.8255C39.1894 23.8255 39.8956 24.532 39.8956 25.4032C39.8956 26.2747 39.1894 26.9812 38.3186 26.9812C37.4475 26.9812 36.7413 26.2747 36.7413 25.4032C36.7413 24.532 37.4475 23.8255 38.3186 23.8255ZM28.9465 7.16258C29.8176 7.16258 30.5238 7.86875 30.5238 8.74026C30.5238 9.61178 29.8176 10.3183 28.9465 10.3183C28.0754 10.3183 27.3692 9.61178 27.3692 8.74026C27.3692 7.86875 28.0754 7.16258 28.9465 7.16258ZM37.327 8.88357C38.1981 8.88357 38.9043 9.59014 38.9043 10.4613C38.9043 11.3328 38.1981 12.0393 37.327 12.0393C36.4559 12.0393 35.7497 11.3328 35.7497 10.4613C35.7497 9.59014 36.4559 8.88357 37.327 8.88357ZM41.6785 16.3529C42.5496 16.3529 43.2554 17.0594 43.2554 17.9309C43.2554 18.8021 42.5496 19.5086 41.6785 19.5086C40.8074 19.5086 40.1011 18.8021 40.1011 17.9309C40.1011 17.0594 40.8074 16.3529 41.6785 16.3529Z" fill="white"/>
<path fill-rule="evenodd" clip-rule="evenodd" d="M35.0284 29.7502C30.408 31.5645 26.1916 34.5893 22.893 38.7673C19.0079 43.6881 16.9721 49.4774 16.6855 55.2974C20.6173 52.136 23.4365 49.4009 27.9906 47.2317C34.4017 44.1774 38.5808 38.4613 35.0284 29.7502ZM44.7628 25.2915C43.0616 28.1643 42.0872 31.7646 43.4202 36.0785C44.0536 38.1294 44.5591 40.0487 44.6278 41.8372C45.0449 41.4841 45.45 41.1038 45.8414 40.6966C47.4213 39.0525 47.9428 37.3957 47.8492 35.6661C47.7477 33.7965 46.9523 31.7493 45.963 29.5304C45.3094 28.0643 44.9288 26.649 44.7628 25.2915ZM41.5 31.6508C39.9249 34.0563 38.9587 37.0713 39.5343 40.8272C39.7317 42.1149 39.8895 43.3481 39.9391 44.516C41.1277 44.1125 42.276 43.5403 43.3597 42.802L43.3247 41.8831C43.2937 41.0743 43.1613 40.2241 42.9632 39.3373C42.7617 38.4329 42.4841 37.4684 42.173 36.4618C41.6474 34.7606 41.45 33.156 41.5 31.6508ZM52.7323 15.4906C56.0641 23.1103 57.7089 30.3041 53.8302 38.9957C52.2096 38.0171 52.5483 36.0987 53.1172 34.9621C56.5409 28.1218 54.2353 21.6345 52.7323 15.4906ZM32.2506 33.112C27.4298 35.8086 22.5561 41.5009 20.7225 48.5734C23.4589 47.815 23.7025 46.5927 24.1536 44.7433C25.3776 39.7239 28.3013 36.3263 32.2506 33.112ZM18.2625 55.9815C20.8314 57.0057 23.5153 57.6462 26.2271 57.9059C27.7906 58.0556 29.2564 58.0903 30.8072 57.9933C36.9173 57.6122 41.2478 56.0756 45.5272 50.3489C47.1963 48.1151 48.2771 46.2765 48.7815 43.4701C49.0546 41.9503 49.0755 40.3114 48.7528 38.833C44.5274 47.7482 31.9137 46.1955 24.0514 50.9562C20.843 52.8989 19.3847 54.8334 18.2625 55.9815ZM49.907 49.1221C60.0115 38.6065 60.6162 22.444 51.9339 11.2524C49.0852 14.481 43.9477 20.7398 47.1538 28.9985C50.8244 38.4549 50.5782 43.3742 48.5271 47.3317C47.253 49.7898 45.6369 51.9218 43.1221 54.4497C45.8425 52.747 48.0096 51.0966 49.907 49.1221Z" fill="white"/>
</svg>
