<svg width="58" height="72" viewBox="0 0 58 72" fill="none" xmlns="http://www.w3.org/2000/svg">
<g clip-path="url(#clip0_2_1100)">
<path fill-rule="evenodd" clip-rule="evenodd" d="M48.3668 11.1969C47.9796 10.7098 47.5765 10.2476 47.0696 9.75181C36.679 -0.409222 20.1582 -0.0779355 10.1694 10.4917C0.180593 21.0614 0.506265 37.8671 10.8968 48.0281C12.1406 49.2445 13.4731 50.3089 14.8709 51.2249C14.6939 52.0996 14.555 52.9796 14.4526 53.8623C12.5977 52.7432 10.8386 51.392 9.21664 49.8059C-2.1391 38.7009 -2.49502 20.3342 8.42171 8.78262C19.0026 -2.41358 36.2899 -3.09807 47.6831 6.98175C48.0397 7.2973 48.8817 7.99649 49.9612 9.25986C49.4761 9.82151 48.9273 10.4695 48.3668 11.1969Z" fill="url(#paint0_linear_2_1100)"/>
<path d="M42.8688 59.4055C42.0502 59.7935 41.2168 60.1472 40.3706 60.4654C36.731 61.8341 32.8566 62.5509 28.9198 62.5509C24.957 62.5509 21.052 61.8213 17.3811 60.4291C16.5722 60.1223 15.7752 59.7833 14.9919 59.4128V56.5097C16.0582 57.0674 17.1547 57.56 18.2758 57.9852C21.6458 59.2632 25.2479 59.9331 28.9198 59.9331C32.5569 59.9331 36.132 59.2726 39.4861 58.0112C40.6418 57.5766 41.7716 57.0707 42.8688 56.4961V59.4055Z" fill="#12385A"/>
<path d="M42.8688 64.5428C41.5176 65.0828 40.137 65.5438 38.7341 65.9242C35.5431 66.7891 32.248 67.2327 28.9304 67.2327C25.6129 67.2327 22.3178 66.7891 19.1268 65.9242C17.7239 65.5438 16.3432 65.0827 14.9919 64.5427V61.7188C16.5503 62.3958 18.1506 62.9568 19.7802 63.3985C22.7465 64.2025 25.8218 64.6149 28.9304 64.6149C32.039 64.6149 35.1145 64.2025 38.0808 63.3985C39.7103 62.9568 41.3104 62.3958 42.8688 61.7189V64.5428Z" fill="#12385A"/>
<path d="M37.7698 70.9435C34.8703 71.5601 31.9086 71.8747 28.9304 71.8747C25.9521 71.8747 22.9904 71.5601 20.0908 70.9434V68.271C22.9768 68.9236 25.9404 69.2569 28.9304 69.2569C31.9202 69.2569 34.8839 68.9236 37.7698 68.271V70.9435Z" fill="#12385A"/>
<path fill-rule="evenodd" clip-rule="evenodd" d="M21.7964 7.52884C21.3203 7.44056 20.8479 7.41312 20.42 7.40525C17.5479 7.34368 15.1064 9.52249 14.7606 12.3772C13.0399 12.4299 11.4359 13.1707 10.2257 14.4808C8.21685 16.6554 7.81663 19.916 9.0144 22.53C6.7573 23.9072 5.30518 26.503 5.30518 29.3325C5.30518 32.1386 6.73467 34.7137 8.96043 36.1002C8.41023 37.2979 8.2457 38.6197 8.50162 39.9652C9.08067 43.0082 11.7704 45.2307 14.781 45.3654C14.9089 46.2415 15.219 47.0452 15.6682 47.7347C15.9277 46.797 16.2355 45.8679 16.592 44.9511C16.9884 43.9317 17.4461 42.9261 17.9659 41.9392C17.3617 42.788 16.4203 43.1059 15.6508 43.2147C13.3809 43.5355 11.0977 41.8713 10.662 39.5816C10.4023 38.2166 10.8823 36.7162 11.8055 35.7158C12.2096 35.2789 12.17 34.6078 11.7174 34.2176C11.2647 33.8275 10.5701 33.8652 10.1661 34.3027C10.1607 34.3084 10.156 34.3146 10.1507 34.3203C8.53924 33.3228 7.50246 31.4202 7.50246 29.3325C7.50246 27.2277 8.55525 25.31 10.1897 24.3193C10.2022 24.3333 10.2129 24.3484 10.2255 24.3624L11.0834 25.2912C11.3003 25.5259 11.6014 25.6457 11.9033 25.6457C12.1638 25.6457 12.4249 25.5569 12.6346 25.3762C13.0873 24.9858 13.1268 24.3147 12.7229 23.8775L11.865 22.9487C11.7096 22.7807 11.5727 22.6005 11.4444 22.4159C11.4302 22.3935 11.4158 22.3716 11.4001 22.3507C10.0902 20.4014 10.2415 17.6514 11.865 15.8942C12.6987 14.9916 13.7966 14.495 14.9568 14.495C16.1169 14.495 17.2149 14.992 18.0486 15.8942C18.4526 16.3317 19.1472 16.37 19.5999 15.9794C20.0526 15.5891 20.0921 14.918 19.6881 14.4811C18.9084 13.6368 17.9648 13.0285 16.9321 12.6884C17.1167 10.9004 18.5857 9.52705 20.3175 9.52705C20.3375 9.52705 20.358 9.52725 20.3781 9.5276C20.6625 9.533 20.9955 9.5476 21.3147 9.60035C21.799 9.68022 21.8779 9.81063 22.2543 9.75121C22.7474 9.67331 23.1188 9.22596 23.1188 8.70067C23.1188 8.27518 22.8739 7.90792 22.5198 7.7366C22.2931 7.62712 22.052 7.57628 21.7964 7.52884ZM24.642 26.3646C24.0681 26.2543 23.5119 26.6306 23.4012 27.2062C23.3645 27.3961 23.3106 27.5822 23.2404 27.7592C23.1711 27.9337 23.0861 28.1014 22.987 28.2575C22.8896 28.4109 22.7782 28.5552 22.655 28.6866C22.533 28.8168 22.3989 28.9345 22.2584 29.036C22.1162 29.1381 21.9649 29.2258 21.8095 29.2958C21.6511 29.3671 21.4869 29.4217 21.3194 29.4581C20.9792 29.5318 20.6132 29.5326 20.2703 29.4578C20.1041 29.4217 19.9398 29.3671 19.7817 29.2958C19.6258 29.2258 19.4748 29.1378 19.3335 29.0365C19.192 28.9346 19.0583 28.8167 18.936 28.6866C18.8133 28.5556 18.7016 28.4115 18.6041 28.2575C18.5049 28.1008 18.4198 27.9337 18.3512 27.7599C18.2805 27.5816 18.2261 27.3956 18.1901 27.2068C18.0795 26.6312 17.5233 26.2531 16.9499 26.3644C16.3753 26.4747 15.9988 27.0309 16.109 27.6068C16.1705 27.9267 16.2619 28.2417 16.3818 28.5437C16.4387 28.6869 16.5026 28.8273 16.5722 28.965C16.2468 29.283 15.8376 29.4957 15.379 29.5736C14.7248 29.6843 14.0473 29.5163 13.4705 29.099C12.9954 28.7566 12.3337 28.8637 11.9914 29.3388C11.649 29.8141 11.7562 30.4776 12.2309 30.8208C13.0573 31.4179 14.0113 31.7303 14.9784 31.7303C15.2301 31.7303 15.4825 31.7093 15.7334 31.6665C16.5622 31.5258 17.3056 31.1589 17.9125 30.6134C17.9744 30.6625 18.0339 30.715 18.0975 30.7608C18.3543 30.9454 18.6284 31.104 18.9123 31.2324C19.2052 31.3646 19.5108 31.4655 19.8199 31.5325C20.1384 31.6023 20.4668 31.6378 20.7961 31.6378C21.1255 31.6378 21.4539 31.6026 21.7711 31.5329C22.0811 31.4655 22.3868 31.3642 22.6799 31.2324C22.9637 31.104 23.2383 30.9457 23.4959 30.7602C23.748 30.5781 23.9847 30.3699 24.1997 30.1406C24.414 29.9126 24.608 29.6618 24.7767 29.3953C24.9462 29.1278 25.0921 28.8419 25.2101 28.5441C25.3293 28.2429 25.421 27.9282 25.4826 27.6077C25.5927 27.0318 25.2165 26.4753 24.642 26.3646ZM14.7334 37.0057C14.7274 37.0151 14.7214 37.0245 14.7158 37.0339L13.7459 38.6539C13.4421 39.1615 13.6216 39.8104 14.1468 40.1038C14.6716 40.3972 15.3439 40.224 15.6478 39.717L16.6086 38.1122C17.2386 37.1414 18.2985 36.6101 19.384 36.6748C20.1381 36.7196 20.7092 36.9937 21.2124 37.3433C21.5659 36.9029 22.2068 36.1168 22.5629 35.6757C21.6775 35.0223 20.6938 34.7149 20.4465 34.6573C18.5805 34.2222 16.2417 34.657 14.7334 37.0057ZM41.4522 14.3499C43.3289 14.3499 44.8503 15.8975 44.8503 17.8066C44.8503 19.7157 43.3289 21.2632 41.4522 21.2632C39.9598 21.2632 38.6923 20.2846 38.2356 18.9238H29.9455V24.0173V24.1618H34.9311C35.3878 22.801 36.6553 21.8223 38.1477 21.8223C40.0245 21.8223 41.5458 23.3699 41.5458 25.279C41.5458 27.1881 40.0245 28.7357 38.1477 28.7357C36.6553 28.7357 35.3878 27.7571 34.9311 26.3963H29.9455V28.4766V29.6177C29.1975 30.0426 28.4645 30.5 27.7489 30.9892V27.1301V24.0182C27.7489 22.415 26.5105 21.1108 24.9881 21.1108C23.4657 21.1108 22.2274 22.415 22.2274 24.0182C22.2274 24.6044 21.7355 25.0795 21.1289 25.0795C20.5221 25.0795 20.0301 24.6044 20.0301 24.0182C20.0301 23.6297 20.0779 23.2529 20.1605 22.8896C19.9792 22.9054 19.7973 22.9141 19.6143 22.9141C19.3255 22.9141 19.0349 22.8945 18.7435 22.8544C17.0395 22.6212 15.5296 21.7243 14.4922 20.329C14.1384 19.8527 14.2509 19.1898 14.7436 18.8477C15.2365 18.5054 15.9233 18.6142 16.277 19.0906C16.9612 20.0113 17.9469 20.6014 19.0524 20.7529C21.5401 21.0921 22.3904 18.9878 24.9882 18.9878C26.0096 18.9878 26.9591 19.3031 27.7489 19.8422V11.8582C26.4546 11.3699 25.5323 10.1028 25.5323 8.61631C25.5323 6.70723 27.0537 5.15967 28.9304 5.15967C30.8071 5.15967 32.3285 6.70723 32.3285 8.61631C32.3285 10.1657 31.3263 11.477 29.9455 11.9161V16.6894H32.2588L34.5894 12.583C34.0814 11.9789 33.7745 11.1946 33.7745 10.3373C33.7745 8.42821 35.2959 6.88064 37.1726 6.88064C39.0493 6.88064 40.5707 8.42821 40.5707 10.3373C40.5707 12.2464 39.0493 13.794 37.1726 13.794C36.935 13.794 36.7032 13.7691 36.4794 13.7219L34.7952 16.6894H38.2356C38.6923 15.3286 39.9598 14.3499 41.4522 14.3499ZM38.1477 23.7011C39.0044 23.7011 39.6989 24.4076 39.6989 25.279C39.6989 26.1505 39.0044 26.857 38.1477 26.857C37.291 26.857 36.5965 26.1505 36.5965 25.279C36.5965 24.4076 37.291 23.7011 38.1477 23.7011ZM28.9304 7.03843C29.787 7.03843 30.4815 7.7449 30.4815 8.61636C30.4815 9.4878 29.787 10.1943 28.9304 10.1943C28.0737 10.1943 27.3792 9.4878 27.3792 8.61636C27.3792 7.7449 28.0737 7.03843 28.9304 7.03843ZM37.1726 8.75941C38.0293 8.75941 38.7238 9.46591 38.7238 10.3373C38.7238 11.2088 38.0293 11.9152 37.1726 11.9152C36.3159 11.9152 35.6214 11.2088 35.6214 10.3373C35.6214 9.46591 36.3159 8.75941 37.1726 8.75941ZM41.4522 16.2287C42.3088 16.2287 43.0033 16.9352 43.0033 17.8066C43.0033 18.678 42.3088 19.3845 41.4522 19.3845C40.5955 19.3845 39.901 18.678 39.901 17.8066C39.901 16.9352 40.5955 16.2287 41.4522 16.2287Z" fill="url(#paint1_linear_2_1100)"/>
<path fill-rule="evenodd" clip-rule="evenodd" d="M34.9115 29.6257C30.3674 31.44 26.2205 34.4646 22.9764 38.6425C19.1554 43.5633 17.1534 49.3526 16.8716 55.1722C20.7385 52.0111 23.5109 49.2761 27.9898 47.1067C34.2952 44.0527 38.4053 38.3364 34.9115 29.6257ZM44.4852 25.1667C42.8121 28.0398 41.8537 31.6398 43.1647 35.9537C43.7878 38.0045 44.285 39.9237 44.3525 41.7123C44.7627 41.3592 45.1611 40.9791 45.5459 40.5719C47.1 38.9275 47.613 37.271 47.5209 35.5415C47.4211 33.6719 46.6386 31.6247 45.6657 29.4056C45.0229 27.9397 44.6485 26.5243 44.4852 25.1667ZM41.2764 31.5259C39.7271 33.9315 38.7768 36.9466 39.343 40.7023C39.5371 41.9901 39.6923 43.2231 39.7413 44.3912C40.9103 43.9876 42.0395 43.4154 43.1054 42.6773L43.0708 41.7584C43.0403 40.9495 42.91 40.0994 42.7154 39.2125C42.5171 38.3082 42.2441 37.3438 41.9383 36.3371C41.4213 34.6357 41.2273 33.0313 41.2764 31.5259ZM52.3233 15.3662C55.6 22.9858 57.2176 30.1793 53.4028 38.871C51.8091 37.8923 52.1424 35.974 52.702 34.8374C56.0689 27.9972 53.8013 21.5099 52.3233 15.3662ZM32.1796 32.9873C27.4383 35.6839 22.6452 41.376 20.8419 48.4484C23.5329 47.6901 23.7725 46.4678 24.2162 44.6183C25.4202 39.5993 28.2954 36.2015 32.1796 32.9873ZM18.4223 55.8563C20.9488 56.8804 23.5883 57.5211 26.2555 57.7808C27.7932 57.9305 29.2349 57.9651 30.7599 57.8683C36.7692 57.4872 41.0282 55.9505 45.237 50.2239C46.8786 47.9901 47.9417 46.1514 48.4376 43.3451C48.7061 41.8256 48.7268 40.1867 48.4093 38.7081C44.2537 47.6231 31.8482 46.0705 24.1158 50.8313C20.9604 52.7739 19.5261 54.7085 18.4223 55.8563ZM49.5446 48.9971C59.4822 38.4817 60.0772 22.3195 51.538 11.1279C48.7364 14.3564 43.6837 20.6152 46.8367 28.8738C50.4468 38.3301 50.2045 43.2495 48.1874 47.2068C46.9344 49.665 45.3451 51.7969 42.8718 54.3245C45.547 52.6219 47.6787 50.9716 49.5446 48.9971Z" fill="url(#paint2_linear_2_1100)"/>
</g>
<defs>
<linearGradient id="paint0_linear_2_1100" x1="1.29526" y1="54.8511" x2="48.4876" y2="7.78842" gradientUnits="userSpaceOnUse">
<stop stop-color="#F08518"/>
<stop offset="1" stop-color="#FFD109"/>
</linearGradient>
<linearGradient id="paint1_linear_2_1100" x1="4.81771" y1="53.9712" x2="49.5446" y2="7.40547" gradientUnits="userSpaceOnUse">
<stop stop-color="#05278D"/>
<stop offset="1" stop-color="#529DD6"/>
</linearGradient>
<linearGradient id="paint2_linear_2_1100" x1="21.2391" y1="64.0131" x2="57.3465" y2="22.4155" gradientUnits="userSpaceOnUse">
<stop stop-color="#119C4E"/>
<stop offset="1" stop-color="#6ABA7B"/>
</linearGradient>
<clipPath id="clip0_2_1100">
<rect width="58" height="72" fill="white"/>
</clipPath>
</defs>
</svg>
